<svg xmlns="http://www.w3.org/2000/svg" width="1387" height="756" viewBox="0 0 1387 756">
<g>
<path d="M 638.38 534.11 C635.98,536.37 635.07,536.51 621.67,536.73 C604.02,537.01 599.78,535.88 592.97,529.06 C589.25,525.34 587.71,522.79 586.15,517.75 C583.56,509.37 581.61,492.48 582.27,484.22 C583.08,474.14 586.51,470.87 599.80,467.47 C606.26,465.82 620.77,465.76 624.21,467.38 C626.15,468.29 631.00,464.14 631.00,461.56 C631.00,460.68 628.32,458.68 624.75,456.88 C616.09,452.51 608.31,447.03 603.00,441.55 C600.53,438.99 596.59,435.78 594.26,434.41 C591.92,433.04 589.30,430.55 588.44,428.88 C587.49,427.04 586.32,426.05 585.49,426.36 C576.29,429.90 562.70,430.21 552.96,427.12 C532.15,420.52 521.32,402.52 525.34,381.20 C527.28,370.91 532.10,360.63 539.86,350.23 L 546.03 341.95 L 542.01 337.77 C535.82,331.33 533.70,324.53 534.43,313.50 C535.20,301.88 535.21,301.00 534.85,291.50 C534.60,284.79 534.92,282.74 536.85,278.77 C539.99,272.34 547.38,265.97 556.45,261.90 C563.43,258.76 564.04,258.24 564.57,255.00 C565.99,246.26 570.49,232.66 574.98,223.50 C583.45,206.24 595.47,192.24 611.30,181.21 L 617.09 177.17 L 611.30 175.59 C608.11,174.73 601.22,171.90 596.00,169.31 C588.10,165.39 584.97,163.08 577.39,155.55 C564.41,142.66 554.42,125.08 558.08,121.54 C559.85,119.82 573.76,115.59 585.00,113.34 C596.78,110.99 617.21,111.03 626.50,113.42 C639.46,116.77 653.74,125.96 661.19,135.75 C665.19,141.00 666.55,141.21 664.42,136.25 C663.54,134.19 662.57,131.82 662.26,131.00 C661.95,130.18 659.74,126.31 657.35,122.42 C654.96,118.52 653.00,114.17 653.00,112.74 C653.00,107.07 662.91,100.00 670.85,100.00 C673.69,100.00 675.42,100.69 677.33,102.60 C682.82,108.10 689.00,130.14 689.00,144.25 C689.00,150.21 689.01,150.23 691.25,148.79 C696.90,145.18 703.06,143.73 718.00,142.46 C733.53,141.14 738.09,139.95 745.24,135.32 C747.85,133.63 748.06,133.63 749.74,135.31 C752.21,137.78 752.20,150.13 749.74,154.93 C748.35,157.63 748.24,158.54 749.24,159.21 C750.82,160.27 757.99,159.38 764.37,157.33 C768.46,156.01 769.37,155.98 770.10,157.13 C772.86,161.49 768.68,174.92 762.38,181.92 L 757.78 187.04 L 765.14 194.79 C784.51,215.16 794.85,239.48 796.66,268.88 C797.17,277.07 797.60,278.87 799.57,281.00 C803.83,285.60 805.95,291.89 806.00,300.00 L 806.04 307.50 L 814.75 290.74 C819.91,280.82 824.19,273.76 825.25,273.42 C826.24,273.11 851.42,280.97 882.06,291.17 C929.27,306.89 937.16,309.79 937.62,311.61 C937.98,313.04 933.94,322.14 925.07,339.85 C917.88,354.23 912.00,366.42 912.00,366.94 C912.00,367.47 913.12,369.11 914.49,370.58 C919.10,375.56 920.16,383.30 917.06,389.39 C915.99,391.48 914.81,394.61 914.44,396.35 C913.48,400.77 910.43,406.63 905.94,412.63 C900.88,419.41 895.05,422.31 887.40,421.84 L 881.81 421.50 L 874.15 436.50 C868.30,447.97 866.00,451.57 864.39,451.80 C863.22,451.97 844.59,444.65 822.97,435.55 C801.36,426.45 782.96,419.02 782.09,419.04 C781.18,419.06 779.49,421.23 778.17,424.06 C776.88,426.79 774.70,429.81 773.32,430.77 C771.94,431.72 769.42,433.67 767.72,435.11 L 764.63 437.72 L 771.12 443.79 C775.16,447.58 778.64,451.96 780.34,455.43 C782.73,460.33 783.42,461.00 786.03,461.00 C788.89,461.00 793.00,463.94 793.00,465.98 C793.00,468.42 798.25,468.16 804.29,465.42 C815.02,460.56 826.51,461.70 833.85,468.37 C837.32,471.53 840.00,477.40 840.00,481.86 C840.00,491.89 819.51,509.73 794.17,521.77 C783.24,526.96 775.31,528.25 770.27,525.64 C764.87,522.85 756.69,502.85 757.17,493.63 C757.38,489.51 756.85,487.43 754.47,483.08 C749.79,474.54 743.92,468.68 736.83,465.50 C729.07,462.02 727.85,462.01 715.63,465.33 C704.13,468.45 692.21,469.98 679.32,469.99 L 670.15 470.00 L 667.64 475.47 C664.49,482.36 656.95,490.49 650.84,493.58 C648.25,494.89 643.17,496.53 639.54,497.22 C633.47,498.37 632.87,498.71 632.10,501.48 C631.35,504.22 631.66,504.84 635.56,508.26 C641.59,513.56 643.69,519.36 642.11,526.40 C641.37,529.70 639.95,532.64 638.38,534.11 ZM 706.50 349.76 C712.00,353.13 716.73,355.80 717.01,355.69 C717.29,355.59 721.79,352.32 727.01,348.43 C732.23,344.54 743.25,336.37 751.50,330.26 C767.42,318.47 781.39,305.12 784.77,298.48 C788.17,291.77 789.34,283.13 788.72,269.19 C788.00,252.97 784.77,240.00 778.05,226.39 C772.30,214.74 766.81,207.13 757.68,198.14 L 751.22 191.78 L 744.80 193.39 C741.26,194.27 736.88,195.00 735.06,195.00 C731.86,195.00 731.77,195.11 732.40,198.25 C734.97,211.05 734.33,212.12 724.83,210.83 C709.11,208.71 695.99,202.82 687.77,194.19 C682.59,188.76 679.89,183.78 681.33,182.33 C681.65,182.02 684.47,184.04 687.60,186.83 C694.44,192.93 704.00,198.10 713.50,200.83 C725.36,204.25 726.00,204.31 726.00,202.05 C726.00,198.59 721.05,188.69 716.79,183.63 C713.15,179.32 712.96,178.85 715.09,179.51 C716.42,179.91 719.98,181.77 723.02,183.62 C727.79,186.54 729.41,187.00 735.02,187.00 C746.65,187.00 758.27,179.43 761.86,169.52 C763.39,165.28 762.98,164.41 760.15,165.92 C756.30,167.98 742.48,166.37 733.71,162.84 L 730.91 161.72 L 735.71 158.97 C740.75,156.07 743.31,152.64 744.46,147.25 C745.22,143.72 744.52,143.27 741.47,145.34 C738.24,147.55 730.29,149.09 717.52,149.99 C704.24,150.93 700.81,151.74 694.67,155.37 C687.93,159.35 682.73,165.71 680.03,173.25 C678.92,176.37 675.11,177.04 673.00,174.50 C671.29,172.44 667.47,172.64 653.50,175.51 C646.90,176.87 639.30,177.98 636.62,177.99 C621.74,178.02 593.86,202.49 582.49,225.50 C573.47,243.75 570.56,257.29 571.24,277.89 C571.51,285.93 572.06,293.30 572.48,294.29 C573.67,297.09 577.62,298.69 607.50,308.52 C655.32,324.25 685.19,336.69 706.50,349.76 ZM 842.50 436.25 L 862.50 444.66 L 876.15 416.50 L 874.08 412.22 C871.67,407.27 871.47,402.56 873.50,399.00 C874.29,397.62 874.95,394.92 874.97,393.00 C875.01,389.06 877.92,383.65 880.83,382.09 C881.90,381.52 883.06,379.50 883.42,377.59 C883.82,375.45 885.29,373.10 887.25,371.44 C890.14,369.01 891.01,368.81 896.54,369.25 L 902.65 369.74 L 916.32 342.37 C923.85,327.31 930.00,314.80 930.00,314.56 C930.00,313.96 830.37,281.00 828.53,281.00 C826.59,281.00 765.46,402.86 766.75,404.15 C767.61,405.01 772.14,406.96 806.00,420.99 C815.08,424.76 831.50,431.62 842.50,436.25 ZM 670.85 433.04 C686.99,434.36 721.54,432.18 736.32,428.91 C746.08,426.76 758.50,422.66 760.63,420.89 C762.21,419.58 762.43,416.83 761.06,415.45 C760.18,414.56 759.54,412.32 758.31,405.89 C757.94,403.94 760.40,398.16 767.88,383.39 C777.90,363.58 777.94,363.47 777.65,356.95 C777.50,353.35 777.06,349.91 776.69,349.30 C776.22,348.55 772.77,349.26 765.73,351.54 C754.61,355.15 745.00,356.88 745.00,355.28 C745.00,353.62 748.00,351.51 763.83,342.05 C772.26,337.00 780.55,331.67 782.26,330.19 C791.65,322.07 793.38,320.19 795.73,315.56 C799.14,308.87 799.97,298.23 797.53,292.49 L 795.83 288.50 L 793.63 294.51 C792.42,297.82 789.75,303.04 787.71,306.12 C782.51,313.95 768.43,327.21 756.00,335.97 C750.22,340.04 739.30,348.02 731.73,353.69 L 717.96 364.01 L 714.73 362.64 C712.95,361.89 709.25,359.89 706.50,358.20 C683.80,344.22 654.38,331.55 615.50,319.02 C579.03,307.26 570.76,304.00 561.25,297.68 C549.69,289.98 549.00,281.44 559.36,274.40 C561.89,272.68 563.00,271.18 563.00,269.46 L 563.00 269.41 C563.00,268.26 563.00,267.56 562.66,267.31 C562.13,266.90 560.76,267.60 557.22,269.39 L 557.11 269.44 C546.37,274.89 542.00,281.05 542.00,290.76 C542.00,297.85 544.91,303.05 552.90,310.23 C558.29,315.06 570.15,322.00 573.05,322.00 C573.94,322.00 575.28,320.84 576.05,319.41 C577.63,316.45 581.84,313.98 585.20,314.04 C589.06,314.11 593.56,317.22 598.37,323.16 C603.64,329.65 602.06,328.95 630.50,337.42 C643.67,341.34 682.33,354.99 684.75,356.57 C685.99,357.38 687.00,358.49 687.00,359.02 C687.00,360.62 672.58,360.14 659.06,358.10 C641.98,355.53 629.94,354.00 626.70,354.00 C621.40,354.00 624.20,357.34 633.28,361.87 C644.38,367.40 649.99,374.39 650.01,382.72 C650.02,385.64 650.94,387.64 654.06,391.50 C661.55,400.77 664.13,405.04 666.57,412.21 C669.26,420.12 669.64,424.47 667.75,425.68 C667.06,426.12 665.02,427.00 663.22,427.64 C660.37,428.64 659.27,428.47 654.92,426.37 C652.17,425.04 647.65,422.36 644.88,420.42 C641.97,418.37 638.94,417.01 637.69,417.19 C633.13,417.84 634.98,424.88 640.46,427.77 C644.81,430.05 655.14,431.86 657.94,430.83 C659.46,430.26 660.76,430.39 661.73,431.19 C662.54,431.86 666.65,432.69 670.85,433.04 ZM 617.50 169.59 C625.96,171.24 641.24,170.73 652.53,168.41 C663.76,166.11 664.07,165.82 658.88,162.32 C646.73,154.11 628.23,145.68 606.50,138.44 C592.80,133.88 593.06,133.01 607.38,135.51 C624.32,138.46 648.32,147.82 660.85,156.35 C663.79,158.36 666.40,160.00 666.65,160.00 C668.30,160.00 657.55,142.52 652.75,137.39 C646.69,130.91 638.54,125.00 635.66,125.00 C634.75,125.00 634.00,124.65 634.00,124.22 C634.00,123.10 627.89,120.95 626.74,121.66 C626.21,121.99 625.45,121.73 625.05,121.08 C624.25,119.78 606.70,117.64 603.42,118.45 C602.27,118.72 598.05,119.20 594.02,119.51 C590.00,119.81 586.31,120.31 585.82,120.61 C585.33,120.91 583.26,121.36 581.22,121.61 C579.17,121.86 575.03,122.79 572.00,123.66 C568.97,124.54 565.94,125.41 565.26,125.59 C564.03,125.93 565.77,129.42 572.21,139.50 C575.71,144.98 589.46,158.06 595.26,161.43 C601.86,165.27 609.28,167.99 617.50,169.59 ZM 471.50 620.13 C466.84,622.25 456.33,622.51 451.14,620.63 C442.78,617.61 435.98,608.32 434.48,597.87 C433.71,592.55 435.39,583.15 438.02,578.00 C446.29,561.87 471.58,560.30 481.68,575.30 C487.19,583.48 488.42,596.96 484.51,606.31 C482.34,611.50 476.26,617.97 471.50,620.13 ZM 559.64 407.90 C563.96,408.36 567.72,408.79 568.00,408.85 C568.28,408.92 569.05,408.62 569.73,408.19 C570.66,407.60 570.69,406.48 569.86,403.46 C567.49,394.89 570.48,380.90 575.88,375.29 C577.04,374.08 578.00,372.77 578.00,372.40 C578.00,370.72 562.77,372.96 557.36,375.44 C554.24,376.86 551.51,377.84 551.28,377.61 C550.39,376.73 553.40,373.34 558.34,369.67 L 563.50 365.83 L 575.28 366.22 C586.99,366.61 587.06,366.60 587.66,364.23 C587.98,362.93 587.98,359.75 587.65,357.18 C587.12,353.13 586.33,351.85 581.77,347.73 C573.78,340.51 569.31,338.18 564.02,338.48 C559.85,338.72 559.03,339.28 552.27,346.45 C548.27,350.69 543.22,357.16 541.06,360.83 C536.03,369.34 531.98,381.45 532.08,387.68 L 532.15 392.50 L 534.62 384.50 L 535.35 389.79 C536.73,399.83 545.57,406.42 559.64,407.90 ZM 757.10 619.90 C754.54,622.46 750.96,622.59 748.05,620.24 C745.91,618.51 745.87,617.98 745.96,594.25 C746.01,580.92 746.32,569.34 746.63,568.52 C746.95,567.69 748.85,566.53 750.85,565.93 C757.25,564.03 758.93,565.46 766.08,578.88 C769.61,585.52 772.76,590.96 773.07,590.97 C773.39,590.99 775.81,586.84 778.47,581.75 C786.04,567.22 787.16,566.00 793.03,566.00 C800.71,566.00 801.00,567.05 801.00,594.95 C801.00,616.67 800.88,618.12 799.00,620.00 C796.60,622.40 793.25,622.57 790.22,620.44 C788.11,618.96 788.00,618.22 788.00,604.94 C788.00,597.27 787.66,591.00 787.25,591.00 C786.84,591.01 784.55,594.83 782.16,599.51 C778.80,606.09 777.23,608.15 775.23,608.66 C771.08,609.70 768.02,607.10 763.60,598.77 C761.35,594.52 759.28,591.03 759.00,591.02 C758.72,591.01 758.66,597.03 758.85,604.40 C759.17,616.93 759.05,617.95 757.10,619.90 ZM 873.00 620.00 C870.07,622.93 864.21,622.19 861.77,618.59 C861.36,617.99 861.02,606.91 861.02,593.97 C861.00,574.28 861.25,570.08 862.56,568.22 C864.02,566.13 864.83,566.00 876.49,566.00 C890.24,566.00 893.01,566.69 897.77,571.28 C904.79,578.05 904.07,590.87 896.31,596.97 C893.83,598.92 893.71,599.30 894.99,601.31 C900.01,609.17 903.00,614.57 903.00,615.76 C903.00,618.48 900.96,620.85 898.08,621.48 C893.05,622.59 889.95,620.01 885.00,610.58 C881.02,603.00 880.18,602.01 877.75,602.01 L 875.00 602.00 L 875.00 610.00 C875.00,616.67 874.67,618.33 873.00,620.00 ZM 606.47 619.94 C603.76,622.63 596.98,621.85 594.77,618.59 C594.36,617.99 594.02,606.91 594.02,593.97 C594.00,566.28 594.08,566.00 602.05,566.00 C606.71,566.00 607.16,566.24 610.07,570.25 C611.77,572.59 615.93,579.10 619.33,584.71 C622.72,590.33 625.84,594.94 626.25,594.96 C626.66,594.98 627.00,588.98 627.00,581.62 C627.00,567.33 627.19,566.74 632.26,565.47 C634.11,565.01 635.84,565.32 637.52,566.42 L 640.03 568.07 L 639.77 593.75 L 639.50 619.42 L 636.93 620.87 C633.59,622.74 629.52,621.71 626.12,618.13 C624.68,616.61 620.12,609.79 616.00,602.98 L 608.50 590.59 L 608.00 604.75 C607.72,612.54 607.04,619.37 606.47,619.94 ZM 504.78 620.44 C503.56,621.30 501.63,622.00 500.50,622.00 C499.37,622.00 497.44,621.30 496.22,620.44 C494.03,618.91 494.00,618.58 494.00,594.01 C494.00,572.74 494.23,568.92 495.57,567.57 C498.02,565.13 520.02,565.37 525.60,567.91 C535.96,572.61 538.18,586.51 530.00,595.39 L 526.15 599.57 L 530.57 606.45 C535.56,614.19 536.17,618.07 532.78,620.44 C527.38,624.22 522.49,620.96 516.50,609.60 C513.00,602.97 512.15,602.02 509.75,602.01 L 507.00 602.00 L 507.00 610.44 C507.00,618.03 506.78,619.04 504.78,620.44 ZM 686.80 619.62 C682.39,621.93 668.83,622.53 663.75,620.63 C653.60,616.85 647.97,608.41 647.21,595.87 C646.13,577.74 655.83,566.25 673.09,565.22 C685.41,564.48 693.40,569.30 691.62,576.40 C690.53,580.73 687.64,581.46 681.56,578.94 C670.11,574.19 661.00,580.75 661.00,593.72 C661.00,602.51 667.25,610.00 674.57,610.00 C679.93,610.00 681.00,609.17 681.00,605.02 C681.00,601.40 680.85,601.23 676.97,600.61 C672.36,599.87 670.39,596.74 671.95,592.64 C673.13,589.54 674.78,589.00 683.15,589.00 C693.99,589.00 694.00,589.01 694.00,602.54 C694.00,615.18 693.64,616.05 686.80,619.62 ZM 549.40 621.04 C545.00,622.71 540.57,621.37 539.51,618.04 C538.83,615.90 547.45,588.31 553.15,574.40 C556.32,566.68 558.36,565.00 564.62,565.00 C570.95,565.00 572.74,568.03 581.42,593.32 C590.02,618.37 590.19,620.14 584.10,621.48 C579.21,622.55 575.91,620.27 573.99,614.50 L 572.33 609.50 L 563.75 609.21 L 555.16 608.92 L 553.54 614.50 C552.30,618.77 551.33,620.31 549.40,621.04 ZM 816.70 620.50 C814.30,622.18 812.54,622.29 809.28,620.98 C804.96,619.24 805.41,616.22 813.50,592.79 C817.74,580.53 821.59,569.77 822.06,568.89 C824.31,564.69 834.41,563.97 838.19,567.74 C839.93,569.48 853.12,605.39 854.95,613.37 C855.74,616.80 855.56,617.53 853.36,619.74 C851.35,621.74 850.25,622.10 847.70,621.59 C843.55,620.76 842.27,619.36 840.71,613.96 L 839.42 609.50 L 830.80 609.21 L 822.19 608.92 L 820.51 613.96 C819.59,616.73 817.88,619.67 816.70,620.50 ZM 614.30 409.50 C617.33,411.62 620.99,411.36 623.69,408.83 C626.67,406.03 626.61,403.22 623.50,399.00 C622.12,397.14 621.00,395.47 621.00,395.31 C621.00,394.21 623.44,395.45 626.41,398.05 L 629.88 401.11 L 631.55 398.56 C634.24,394.45 632.73,389.64 626.93,383.84 C624.22,381.12 622.00,378.70 622.00,378.45 C622.00,377.10 626.33,378.40 632.70,381.65 C638.73,384.74 640.14,385.13 641.45,384.05 C645.65,380.56 639.91,371.94 630.74,367.97 C623.43,364.80 613.15,364.76 607.15,367.88 C602.03,370.55 594.84,377.47 592.50,382.00 C589.99,386.86 589.67,394.65 591.73,400.48 C594.56,408.43 601.83,411.92 609.51,409.00 C611.51,408.24 612.67,408.36 614.30,409.50 ZM 920.78 620.44 C918.10,622.32 916.31,622.38 913.00,620.71 L 910.50 619.44 L 910.23 593.76 L 909.97 568.07 L 912.48 566.42 C914.25,565.26 916.03,564.97 918.49,565.43 C922.61,566.20 922.89,567.01 923.25,578.87 L 923.50 587.24 L 931.50 577.19 C935.90,571.67 940.73,566.61 942.23,565.96 C945.87,564.38 949.81,565.49 951.18,568.49 C952.52,571.44 951.37,573.44 942.71,583.22 C939.44,586.92 937.00,590.52 937.28,591.22 C937.57,591.92 940.76,596.45 944.37,601.27 C947.99,606.09 951.41,610.90 951.97,611.95 C955.60,618.72 948.56,624.88 942.25,620.46 C941.05,619.62 937.30,614.90 933.92,609.96 C930.54,605.03 927.45,601.00 927.05,601.00 C926.64,601.00 925.57,601.82 924.65,602.83 C923.44,604.17 923.00,606.56 923.00,611.77 C923.00,617.99 922.72,619.08 920.78,620.44 ZM 736.00 620.71 C734.37,621.53 729.34,621.94 721.50,621.87 C720.13,621.86 718.86,621.86 717.68,621.85 C710.77,621.84 706.89,621.84 704.71,619.91 C701.93,617.44 701.95,611.80 701.99,598.95 C701.99,597.24 702.00,595.40 702.00,593.42 C702.00,572.68 702.23,568.91 703.57,567.57 C704.87,566.27 707.92,566.00 721.04,566.00 C735.73,566.00 737.01,566.15 737.96,567.93 C739.55,570.90 739.20,573.80 737.00,576.00 C735.27,577.73 733.67,578.00 725.00,578.00 L 715.00 578.00 L 715.00 587.00 L 723.43 587.00 C732.82,587.00 735.00,588.11 735.00,592.92 C735.00,597.65 732.38,599.00 723.17,599.00 L 715.00 599.00 L 715.00 609.00 L 725.31 609.00 C737.66,609.00 739.29,609.79 738.82,615.52 C738.58,618.54 737.92,619.75 736.00,620.71 ZM 659.46 460.44 C670.47,462.30 692.80,462.34 703.12,460.53 C713.11,458.78 726.22,454.46 734.50,450.20 C740.90,446.90 750.01,441.01 748.72,441.00 C748.29,441.00 742.44,442.11 735.72,443.46 C719.95,446.64 697.19,449.00 682.28,449.00 C666.44,448.99 642.87,446.63 627.41,443.50 C620.44,442.09 614.56,441.11 614.35,441.32 C614.13,441.53 615.69,442.85 617.80,444.25 C628.37,451.24 646.38,458.25 659.46,460.44 ZM 716.83 316.46 C713.98,317.31 710.48,317.98 709.07,317.96 C704.31,317.90 695.62,314.04 691.71,310.25 C681.10,299.99 679.12,281.79 689.34,288.49 C697.89,294.09 714.73,295.70 725.00,291.90 C733.89,288.60 734.54,288.74 734.30,293.90 C734.03,299.54 729.88,308.02 725.47,311.89 C723.58,313.55 719.69,315.61 716.83,316.46 ZM 615.37 521.08 C619.29,521.46 623.79,521.60 625.38,521.39 C626.96,521.17 629.77,521.00 631.62,521.00 C634.27,521.00 635.00,520.59 635.00,519.10 C635.00,516.79 628.92,511.27 625.40,510.38 C623.04,509.79 612.49,510.28 609.06,511.14 C608.27,511.34 607.45,510.74 607.25,509.81 C606.66,507.14 611.55,504.70 618.85,504.03 L 625.50 503.41 L 621.50 502.21 C619.30,501.55 615.56,501.01 613.18,501.01 C609.27,501.00 608.89,500.78 609.18,498.75 C609.46,496.78 610.17,496.46 614.89,496.19 L 620.28 495.89 L 616.92 494.19 C611.16,491.29 608.41,483.42 610.48,475.75 C611.16,473.20 611.00,473.00 608.26,473.00 C603.59,473.00 599.37,474.89 598.17,477.52 C596.90,480.30 597.43,497.25 599.08,506.50 C600.93,516.93 604.37,520.01 615.37,521.08 ZM 624.00 489.92 C634.33,492.93 648.93,488.63 655.36,480.68 C658.90,476.31 662.43,470.10 661.75,469.42 C661.54,469.20 656.22,467.72 649.93,466.11 C649.40,465.98 648.89,465.85 648.40,465.72 C642.09,464.10 639.62,463.47 638.01,464.38 C636.85,465.03 636.14,466.49 634.77,468.97 C632.82,472.50 627.75,475.00 622.57,475.00 C618.63,475.00 617.00,476.99 617.00,481.82 C617.00,485.63 619.60,488.63 624.00,489.92 ZM 760.45 479.25 L 763.19 484.00 L 767.07 481.25 C770.52,478.81 770.96,478.03 770.98,474.33 C770.99,471.36 771.72,469.30 773.50,467.18 C776.51,463.61 776.55,462.99 774.06,458.11 C772.00,454.08 761.68,444.00 759.61,444.00 C758.94,444.00 756.84,445.16 754.94,446.57 C753.05,447.99 748.42,450.96 744.65,453.18 L 737.80 457.21 L 744.32 461.11 C750.87,465.04 754.78,469.43 760.45,479.25 ZM 773.00 496.00 C779.23,502.23 780.97,501.67 798.07,487.92 C808.86,479.25 813.06,476.56 820.77,473.43 C826.10,471.26 826.19,471.17 823.88,469.94 C822.58,469.24 818.97,468.67 815.88,468.67 C808.36,468.67 802.58,472.06 797.49,479.45 C795.39,482.50 793.28,485.00 792.80,485.00 C790.78,485.00 790.79,481.38 792.83,477.66 C794.03,475.47 794.84,473.51 794.63,473.30 C793.89,472.56 787.91,478.28 786.44,481.12 C785.62,482.70 784.29,484.00 783.47,484.00 C780.90,484.00 781.79,478.59 785.13,473.98 C788.10,469.88 788.16,469.59 786.43,468.33 C782.10,465.16 777.00,469.88 777.00,477.06 C777.00,481.51 776.67,482.17 773.00,485.12 C770.80,486.89 769.00,489.16 769.00,490.17 C769.00,491.18 770.80,493.80 773.00,496.00 ZM 455.19 607.98 C459.43,610.56 463.04,610.54 466.39,607.91 C474.33,601.66 474.85,586.59 467.35,580.00 C461.14,574.55 453.80,576.83 449.90,585.42 C446.24,593.47 448.72,604.03 455.19,607.98 ZM 685.11 271.99 C684.34,274.73 682.80,275.24 679.00,274.01 C677.62,273.56 673.29,273.15 669.38,273.10 L 662.25 273.00 L 661.62 269.88 C659.95,261.48 661.71,255.10 666.94,250.70 C677.17,242.09 689.43,256.46 685.11,271.99 ZM 675.67 155.60 L 676.33 163.37 L 682.17 156.50 L 681.67 145.50 C681.38,139.06 680.51,132.71 679.57,130.18 C678.69,127.81 677.75,123.67 677.50,121.00 C677.24,118.32 676.04,114.07 674.82,111.56 C672.91,107.63 672.18,107.00 669.55,107.00 C665.96,107.01 660.00,110.36 660.00,112.38 C660.00,113.16 661.73,116.65 663.85,120.15 C671.32,132.47 674.53,142.09 675.67,155.60 ZM 740.35 272.50 C735.60,274.48 735.42,274.45 734.16,271.25 C729.55,259.53 734.48,247.00 743.70,247.00 C745.82,247.00 748.60,247.73 749.89,248.63 C753.14,250.91 755.95,257.63 755.98,263.17 C756.01,270.45 755.55,271.00 749.36,271.00 C746.38,271.00 742.32,271.67 740.35,272.50 ZM 662.71 659.55 C660.44,662.17 655.24,663.83 651.25,663.21 C650.01,663.02 647.42,661.38 645.50,659.56 C642.61,656.84 642.00,655.55 642.00,652.20 C642.00,646.43 643.46,643.30 647.23,641.00 C653.79,637.00 661.41,639.16 664.44,645.87 C666.61,650.68 665.96,655.77 662.71,659.55 ZM 850.78 661.44 C847.99,663.39 841.37,663.39 837.76,661.43 C827.37,655.79 832.37,639.00 844.45,639.00 C855.66,639.00 860.14,654.88 850.78,661.44 ZM 885.39 414.02 C891.27,416.40 896.52,413.41 902.75,404.14 C905.09,400.66 907.00,397.50 907.00,397.11 C907.00,396.72 904.32,395.85 901.03,395.17 C897.02,394.34 893.53,392.76 890.35,390.34 C884.53,385.89 882.64,386.58 882.20,393.34 C881.91,397.69 882.17,398.24 886.54,402.48 C891.80,407.60 891.14,408.12 883.97,404.48 L 879.00 401.97 L 879.00 404.85 C879.00,408.11 882.23,412.74 885.39,414.02 ZM 786.78 661.44 C784.53,663.02 773.03,663.70 771.67,662.33 C771.30,661.97 771.00,656.79 771.00,650.83 L 771.00 640.00 L 777.55 640.00 C781.36,640.00 785.29,640.62 786.94,641.47 C793.54,644.88 793.45,656.77 786.78,661.44 ZM 632.39 659.96 C629.39,662.60 628.17,663.00 623.13,663.00 C619.94,663.00 617.03,662.70 616.67,662.33 C616.30,661.97 616.00,656.85 616.00,650.96 L 616.00 640.26 L 619.90 639.63 C628.11,638.32 633.92,641.20 636.05,647.65 C637.61,652.39 636.41,656.43 632.39,659.96 ZM 683.48 657.25 C682.07,662.25 681.54,663.00 679.40,663.00 C678.04,663.00 676.73,662.44 676.48,661.75 C669.36,642.27 668.95,640.34 671.64,639.31 C673.87,638.45 675.39,640.77 677.00,647.51 C677.74,650.58 678.68,653.30 679.10,653.56 C679.51,653.82 680.57,651.43 681.44,648.26 C683.49,640.87 684.30,639.50 686.61,639.50 C688.06,639.50 689.12,641.24 691.15,647.00 C693.59,653.90 693.87,654.30 694.77,652.00 C695.31,650.62 696.08,647.92 696.49,646.00 C697.51,641.20 698.79,639.00 700.57,639.00 C703.32,639.00 703.14,641.69 699.70,652.13 C696.63,661.42 696.02,662.50 693.89,662.50 C691.87,662.50 691.17,661.53 689.21,656.04 C689.01,655.48 688.83,654.96 688.66,654.47 C687.46,651.09 686.85,649.35 686.28,649.36 C685.59,649.38 684.97,651.94 683.48,657.25 ZM 609.33 530.02 C613.80,530.98 629.35,530.60 632.28,529.46 C633.26,529.08 634.49,527.95 635.02,526.96 C635.93,525.27 635.42,525.19 626.74,525.71 C610.94,526.64 601.42,523.38 597.67,515.75 C595.09,510.48 592.81,494.99 593.18,485.25 C593.41,479.27 593.17,477.00 592.29,477.00 C589.97,477.00 589.00,480.92 589.03,490.18 C589.13,515.48 594.97,526.96 609.33,530.02 ZM 771.44 516.81 C772.18,519.14 773.48,519.65 774.50,518.01 C774.83,517.46 779.47,513.91 784.81,510.11 C790.14,506.31 799.00,499.54 804.50,495.06 C814.79,486.68 826.41,480.00 830.71,480.00 C832.50,480.00 833.05,479.54 832.79,478.25 C832.22,475.43 825.18,476.15 817.81,479.77 C814.34,481.48 807.67,486.05 803.00,489.92 C798.33,493.80 790.45,499.88 785.50,503.44 C771.41,513.57 770.64,514.30 771.44,516.81 ZM 867.00 659.47 C867.00,662.23 866.60,663.00 865.17,663.00 C864.16,663.00 863.03,662.70 862.67,662.33 C862.30,661.97 862.00,656.79 862.00,650.83 L 862.00 640.00 L 869.85 640.00 C876.18,640.00 878.01,640.35 879.35,641.83 C881.64,644.37 881.45,649.89 878.98,652.52 L 876.96 654.68 L 878.98 657.25 C884.02,663.66 879.32,665.14 873.90,658.85 C869.56,653.80 867.00,654.03 867.00,659.47 ZM 570.00 659.00 C569.53,662.29 567.34,664.01 565.70,662.37 C565.32,661.98 565.00,656.79 565.00,650.83 L 565.00 640.00 L 572.94 640.00 C580.02,640.00 581.06,640.24 582.44,642.22 C584.59,645.29 584.39,649.23 581.93,652.36 L 579.86 654.99 L 581.99 657.99 C583.17,659.64 583.85,661.44 583.50,661.99 C582.17,664.16 579.15,662.83 576.58,658.94 C573.28,653.96 570.72,653.98 570.00,659.00 ZM 511.80 656.24 C511.56,661.25 511.15,662.55 509.75,662.81 C507.22,663.29 506.89,661.60 507.21,649.93 C507.48,640.08 507.62,639.48 509.68,639.19 C511.39,638.95 512.66,640.12 515.51,644.58 L 519.15 650.28 L 522.39 644.89 C524.89,640.73 526.18,639.50 528.06,639.50 L 530.50 639.50 L 530.50 651.00 C530.50,661.83 530.38,662.50 528.50,662.50 C526.74,662.50 526.44,661.67 526.00,655.50 L 525.50 648.50 L 522.66 653.34 L 519.81 658.17 L 517.42 655.93 C516.11,654.69 514.77,652.85 514.45,651.84 C513.28,648.16 512.09,650.14 511.80,656.24 ZM 598.57 350.39 C604.02,357.15 607.57,360.76 608.32,360.30 C608.97,359.90 611.30,359.33 613.50,359.04 C615.70,358.74 617.37,358.05 617.22,357.50 C616.65,355.45 598.46,333.09 597.33,333.05 C595.96,332.99 590.00,337.81 590.00,338.96 C590.00,339.40 593.86,344.54 598.57,350.39 ZM 654.95 415.57 C657.97,417.46 660.99,419.00 661.66,419.00 C664.20,419.00 659.04,407.80 652.45,399.01 L 645.87 390.23 L 642.43 391.28 C639.17,392.28 638.61,393.24 638.71,397.62 C638.77,400.15 649.80,412.35 654.95,415.57 ZM 542.00 660.50 C541.05,662.99 537.71,663.95 536.54,662.07 C535.74,660.77 545.20,639.86 546.89,639.21 C547.65,638.92 548.91,639.09 549.68,639.59 C551.46,640.73 560.19,660.89 559.44,662.10 C558.41,663.77 556.06,663.02 554.41,660.50 C553.03,658.40 551.99,658.00 547.86,658.00 C543.54,658.00 542.84,658.30 542.00,660.50 ZM 713.47 660.75 C712.92,663.19 710.25,663.81 709.43,661.68 C709.15,660.96 709.06,655.68 709.21,649.94 C709.58,636.68 710.77,636.05 717.68,645.40 C720.33,648.98 722.82,651.94 723.20,651.96 C723.59,651.98 724.04,649.19 724.20,645.75 C724.46,640.27 724.75,639.50 726.50,639.50 C728.38,639.50 728.50,640.17 728.50,650.99 C728.50,665.51 727.49,666.13 719.81,656.35 L 714.50 649.57 L 714.24 654.04 C714.09,656.49 713.75,659.51 713.47,660.75 ZM 596.00 658.57 C595.53,662.28 593.45,664.12 591.70,662.37 C591.32,661.98 591.00,656.78 591.00,650.80 C591.00,641.76 591.27,639.83 592.60,639.32 C594.76,638.49 595.96,640.67 596.01,645.50 L 596.05 649.50 L 600.61 644.25 C605.23,638.94 609.00,637.39 609.00,640.80 C609.00,641.80 607.44,644.12 605.54,645.96 L 602.09 649.31 L 606.14 655.09 C610.04,660.64 610.44,663.00 607.51,663.00 C606.75,663.00 604.46,660.96 602.42,658.47 C600.38,655.97 598.21,654.10 597.60,654.29 C597.00,654.49 596.28,656.42 596.00,658.57 ZM 765.00 661.05 C765.00,662.82 764.27,663.00 757.17,663.00 C752.86,663.00 749.03,662.70 748.67,662.33 C748.30,661.97 748.00,656.79 748.00,650.83 L 748.00 640.00 L 756.57 640.00 C764.20,640.00 765.11,640.19 764.81,641.75 C764.55,643.13 763.27,643.56 758.74,643.80 C753.40,644.08 753.00,644.27 753.00,646.55 C753.00,648.82 753.36,649.00 757.94,649.00 C760.66,649.00 763.17,649.47 763.53,650.04 C764.79,652.09 761.79,654.00 757.31,654.00 C753.27,654.00 752.89,654.21 753.18,656.25 C753.46,658.24 754.16,658.53 759.25,658.80 C764.18,659.06 765.00,659.38 765.00,661.05 ZM 898.25 388.51 C905.01,391.45 909.73,389.90 911.47,384.18 C912.20,381.78 910.40,376.00 908.93,376.00 C908.47,376.00 907.66,376.78 907.13,377.74 C906.22,379.36 905.86,379.33 901.55,377.24 C896.42,374.74 893.00,374.40 891.20,376.20 C887.98,379.42 891.52,385.58 898.25,388.51 ZM 576.61 402.42 C576.95,403.32 578.36,403.99 579.86,403.98 C584.24,403.96 584.91,402.98 583.98,398.00 C582.66,390.94 584.92,379.41 587.98,377.51 C589.71,376.44 589.11,375.00 586.93,375.00 C580.81,375.00 576.03,383.40 576.01,394.17 C576.00,397.84 576.27,401.55 576.61,402.42 ZM 663.35 236.00 C657.80,239.13 656.77,239.44 655.67,238.33 C653.51,236.17 658.13,229.99 664.24,226.88 C668.28,224.81 677.44,223.92 679.77,225.36 C681.56,226.47 681.30,231.67 679.42,232.39 C678.55,232.73 675.77,233.00 673.25,233.00 C670.00,233.00 667.11,233.88 663.35,236.00 ZM 701.50 310.60 C706.80,312.94 718.00,312.15 718.00,309.43 C718.00,307.33 711.95,303.38 706.81,302.14 C700.17,300.53 693.00,300.65 693.00,302.36 C693.00,304.26 697.90,309.01 701.50,310.60 ZM 758.79 234.87 C758.32,237.28 755.99,237.15 751.09,234.44 C748.35,232.92 745.07,232.00 742.41,232.00 C739.86,232.00 737.51,231.37 736.57,230.43 C734.55,228.41 734.59,227.68 736.83,225.65 C739.19,223.52 746.15,223.50 750.61,225.62 C754.72,227.57 759.21,232.65 758.79,234.87 ZM 821.00 653.50 C821.00,662.05 820.82,663.00 819.17,663.00 C816.26,663.00 816.00,662.18 816.00,652.83 L 816.00 644.00 L 812.50 644.00 C809.71,644.00 809.00,643.61 809.00,642.08 C809.00,640.36 809.90,640.11 817.25,639.80 C826.99,639.39 828.00,639.61 828.00,642.11 C828.00,643.60 827.27,644.00 824.50,644.00 L 821.00 644.00 ZM 507.20 583.75 L 506.90 590.00 L 512.12 590.00 C518.41,590.00 521.00,588.09 521.00,583.47 C521.00,579.14 518.80,577.58 512.64,577.54 L 507.50 577.50 ZM 875.00 578.00 L 875.00 590.00 L 880.00 590.00 C887.46,590.00 890.97,585.56 887.96,579.93 C887.12,578.35 885.84,578.00 880.96,578.00 ZM 839.92 656.08 C843.23,659.39 844.64,659.64 847.70,657.50 C851.57,654.78 851.52,647.38 847.60,644.77 C845.17,643.14 841.12,644.03 839.07,646.63 C836.25,650.22 836.47,652.62 839.92,656.08 ZM 649.45 656.55 C652.48,659.57 654.68,659.65 657.69,656.83 C662.22,652.57 659.72,644.00 653.94,644.00 C647.48,644.00 644.70,651.79 649.45,656.55 ZM 621.72 658.39 C622.12,658.78 623.58,658.83 624.97,658.49 C634.00,656.29 633.08,644.00 623.89,644.00 L 621.00 644.00 L 621.00 650.83 C621.00,654.59 621.32,657.99 621.72,658.39 ZM 776.72 658.39 C777.12,658.78 778.58,658.83 779.97,658.49 C789.00,656.29 788.08,644.00 778.89,644.00 L 776.00 644.00 L 776.00 650.83 C776.00,654.59 776.32,657.99 776.72,658.39 ZM 583.19 331.04 C585.87,334.67 586.62,334.67 590.86,331.04 L 594.23 328.16 L 591.49 324.58 C589.56,322.04 587.98,321.00 586.08,321.00 C580.75,321.00 579.35,325.85 583.19,331.04 ZM 802.78 651.25 C803.05,662.54 802.98,663.00 801.00,663.00 C798.14,663.00 797.89,661.81 798.21,649.93 C798.48,640.26 798.65,639.50 800.50,639.50 C802.37,639.50 802.52,640.26 802.78,651.25 ZM 826.00 596.91 C826.00,597.56 828.08,598.00 831.12,598.00 C835.51,598.00 836.16,597.75 835.73,596.25 C835.46,595.29 834.43,591.69 833.45,588.25 C832.47,584.81 831.34,582.00 830.93,582.00 C830.21,582.00 826.00,594.73 826.00,596.91 ZM 559.00 597.25 C559.00,597.66 561.25,598.00 564.00,598.00 C566.75,598.00 569.00,597.66 569.00,597.25 C569.01,595.36 564.63,582.00 564.00,582.00 C563.37,582.00 558.99,595.36 559.00,597.25 ZM 846.31 307.80 C844.30,311.92 840.29,313.26 838.05,310.56 C835.49,307.48 839.68,300.00 843.96,300.00 C847.33,300.00 848.39,303.53 846.31,307.80 ZM 892.48 324.03 C891.10,326.76 889.78,329.00 889.54,329.00 C888.27,329.00 888.25,327.05 889.50,325.40 C891.63,322.59 891.30,321.42 888.98,323.52 C887.46,324.89 886.67,325.07 885.81,324.21 C884.96,323.36 884.36,323.50 883.42,324.78 C880.91,328.21 880.93,325.07 883.45,320.10 C886.34,314.39 888.60,313.26 887.65,318.00 C886.95,321.48 887.94,321.83 890.50,319.00 C892.43,316.87 895.00,316.32 895.00,318.03 C895.00,318.60 893.87,321.30 892.48,324.03 ZM 873.48 320.03 C871.51,323.93 870.44,325.00 868.54,325.00 C865.92,325.00 864.13,323.18 865.73,322.14 C866.27,321.79 867.02,319.84 867.39,317.81 C868.15,313.68 870.66,312.21 873.96,313.98 C875.99,315.06 875.98,315.10 873.48,320.03 ZM 837.91 340.25 C836.11,342.59 834.36,344.85 834.01,345.27 C832.81,346.70 832.10,344.78 832.65,341.63 L 833.20 338.50 L 830.64 341.50 L 828.07 344.50 L 828.05 342.00 C828.00,337.59 829.23,332.00 830.24,332.00 C830.83,332.00 830.94,333.49 830.52,335.75 L 829.82 339.50 L 831.98 336.75 C834.99,332.93 836.21,333.28 835.48,337.75 L 834.87 341.50 L 836.67 338.75 C837.66,337.24 839.07,336.00 839.82,336.00 C840.65,336.00 839.92,337.62 837.91,340.25 ZM 876.36 381.10 C874.11,385.77 873.08,386.48 870.25,385.34 C868.17,384.50 868.85,382.82 871.00,383.50 C873.30,384.23 873.76,382.51 871.50,381.64 C869.38,380.82 869.64,377.64 872.01,375.49 C873.72,373.94 874.37,373.86 876.37,374.93 L 878.73 376.19 ZM 857.07 375.05 C857.70,375.43 857.81,376.00 857.31,376.31 C856.81,376.62 855.78,376.48 855.01,376.01 C853.89,375.32 853.85,374.63 854.77,372.61 C855.53,370.94 855.58,369.86 854.92,369.45 C853.51,368.58 850.80,371.04 851.41,372.63 C852.03,374.25 850.38,375.42 849.50,373.99 C848.77,372.81 851.87,364.00 853.02,364.00 C853.43,364.00 854.00,364.90 854.29,366.00 C854.82,368.03 857.00,368.83 857.00,367.00 C857.00,364.76 859.51,366.19 859.64,368.50 C859.73,369.95 859.25,371.00 858.50,371.00 C856.76,371.00 855.65,374.16 857.07,375.05 ZM 827.76 383.82 C826.52,386.64 825.28,388.93 825.00,388.91 C823.04,388.76 820.00,386.84 820.00,385.75 C820.00,383.45 823.13,379.88 824.85,380.23 C825.76,380.42 827.03,379.88 827.67,379.04 C829.94,376.06 829.99,378.75 827.76,383.82 ZM 867.71 650.38 C868.95,651.62 874.25,650.57 875.31,648.89 C877.13,645.97 875.41,644.00 871.03,644.00 C867.27,644.00 867.00,644.19 867.00,646.83 C867.00,648.39 867.32,649.99 867.71,650.38 ZM 666.20 260.80 C669.16,263.76 673.68,260.83 672.62,256.62 C671.89,253.71 669.53,252.64 666.93,254.04 C664.77,255.19 664.37,258.97 666.20,260.80 ZM 840.84 367.45 C839.62,370.12 837.34,371.10 838.39,368.50 L 839.61 365.50 C840.61,363.01 838.32,363.81 836.00,366.75 C834.44,368.73 834.03,368.94 834.53,367.50 C836.03,363.17 836.20,362.00 835.29,362.00 C834.76,362.00 833.74,363.12 833.00,364.50 C831.49,367.32 829.40,367.95 830.51,365.25 C830.90,364.29 831.45,362.71 831.73,361.75 C832.27,359.86 836.46,359.32 837.50,361.00 C837.84,361.55 838.99,362.00 840.06,362.00 C842.27,362.00 842.52,363.76 840.84,367.45 ZM 570.71 650.38 C571.97,651.63 577.26,650.56 578.34,648.83 C579.88,646.37 577.45,644.00 573.38,644.00 C570.34,644.00 570.00,644.28 570.00,646.83 C570.00,648.39 570.32,649.99 570.71,650.38 ZM 737.04 258.55 C737.70,259.35 739.03,260.00 740.00,260.00 C743.98,260.00 745.21,254.79 741.75,252.61 C738.29,250.43 734.38,255.35 737.04,258.55 ZM 910.83 333.64 C911.18,336.25 909.28,336.89 908.35,334.47 C907.90,333.30 907.45,333.21 906.38,334.10 C905.34,334.96 905.00,334.96 905.00,334.06 C905.00,331.92 909.22,323.00 910.23,323.00 C910.77,323.00 910.90,323.79 910.51,324.75 C910.12,325.71 909.56,327.11 909.25,327.87 C908.83,328.90 909.27,329.05 911.09,328.47 C913.30,327.77 913.37,327.85 912.00,329.49 C911.19,330.48 910.66,332.34 910.83,333.64 ZM 866.00 316.00 C865.27,318.20 864.30,320.00 863.84,320.00 C862.74,320.00 862.78,318.71 863.98,315.57 C864.75,313.54 864.64,313.00 863.49,313.00 C862.69,313.00 861.76,314.12 861.41,315.50 C861.07,316.88 860.19,318.00 859.47,318.00 C858.43,318.00 858.49,317.17 859.73,314.02 C861.12,310.47 861.57,310.10 863.89,310.66 C865.55,311.05 866.44,311.26 866.78,311.81 C867.17,312.46 866.81,313.56 866.02,315.95 ZM 899.37 327.21 C898.30,330.95 895.14,332.07 892.98,329.47 C891.84,328.10 891.86,327.70 893.06,326.94 C893.85,326.44 895.29,326.02 896.25,326.02 C898.85,325.99 898.37,324.01 895.75,323.93 L 893.50 323.86 L 895.78 322.76 C899.11,321.16 900.58,322.97 899.37,327.21 ZM 848.67 365.59 C849.01,366.46 848.65,368.41 847.89,369.92 C846.77,372.13 846.03,372.54 844.07,372.05 C840.40,371.13 840.44,369.15 844.16,367.53 C846.05,366.71 846.74,366.06 845.75,366.04 C843.28,365.98 843.56,364.00 846.03,364.00 C847.15,364.00 848.34,364.71 848.67,365.59 ZM 811.50 382.00 C810.80,383.13 807.68,383.35 806.67,382.33 C805.25,380.92 806.06,375.26 807.92,373.57 C810.07,371.63 814.11,371.79 814.79,373.85 C815.12,374.84 814.65,375.02 813.07,374.52 C810.32,373.65 808.00,375.52 808.00,378.62 C808.00,380.36 808.56,381.00 810.06,381.00 C811.19,381.00 811.84,381.45 811.50,382.00 ZM 813.51 357.96 C812.77,360.31 811.00,360.71 811.00,358.53 C811.00,357.73 811.77,355.46 812.71,353.49 C814.07,350.62 814.91,349.97 816.88,350.20 C818.24,350.37 819.55,351.11 819.79,351.85 C820.11,352.82 819.65,353.02 818.20,352.56 C815.81,351.80 814.14,353.73 816.44,354.61 C818.70,355.48 818.37,357.25 816.08,356.53 C814.71,356.09 813.98,356.50 813.51,357.96 ZM 879.50 324.00 C877.64,327.01 874.30,322.89 875.60,319.19 C876.85,315.65 881.33,315.34 881.82,318.75 C882.08,320.58 881.66,321.00 879.57,321.00 C878.16,321.00 877.00,321.45 877.00,322.00 C877.00,322.55 877.70,323.00 878.56,323.00 C879.42,323.00 879.84,323.45 879.50,324.00 ZM 869.98 374.25 C869.97,375.49 869.03,377.62 867.89,379.00 C866.12,381.15 865.90,381.22 866.30,379.50 C866.56,378.40 867.10,376.71 867.49,375.75 C868.64,372.96 866.11,373.67 864.82,376.50 C863.69,378.97 862.00,379.90 862.00,378.05 C862.00,377.52 862.52,375.95 863.16,374.55 C864.74,371.07 870.01,370.84 869.98,374.25 ZM 861.55 351.91 C858.93,356.97 858.17,355.41 860.49,349.75 C861.64,346.96 859.11,347.67 857.82,350.50 C856.69,352.97 855.00,353.90 855.00,352.05 C855.00,349.22 857.50,346.00 859.69,346.00 C862.84,346.00 863.50,348.13 861.55,351.91 ZM 850.11 349.63 C850.99,350.70 850.88,351.00 849.59,351.00 C847.42,351.00 846.58,348.65 847.89,346.21 C848.46,345.14 848.71,344.04 848.44,343.77 C848.17,343.51 848.67,342.69 849.55,341.96 C850.89,340.85 851.30,340.86 852.06,342.06 C853.35,344.10 853.21,345.00 851.61,345.00 C849.68,345.00 848.72,347.96 850.11,349.63 ZM 545.55 653.07 C545.86,653.58 546.96,654.00 548.00,654.00 C549.04,654.00 550.14,653.58 550.45,653.07 C551.09,652.04 549.06,647.00 548.00,647.00 C546.94,647.00 544.91,652.04 545.55,653.07 ZM 840.67 309.34 C841.68,310.34 845.00,306.94 845.00,304.90 C845.00,302.34 843.42,301.72 841.58,303.56 C839.95,305.19 839.49,308.15 840.67,309.34 ZM 904.68 327.70 C903.71,328.69 902.35,330.31 901.68,331.31 C899.63,334.31 899.09,332.13 900.85,327.95 C902.64,323.68 902.79,323.58 904.98,324.97 C906.26,325.77 906.22,326.14 904.68,327.70 ZM 851.67 308.57 C850.70,308.95 849.34,310.64 848.64,312.34 C847.85,314.29 847.12,315.00 846.66,314.26 C845.86,312.96 848.43,305.99 849.70,306.02 C850.14,306.02 851.16,306.45 851.97,306.96 C853.23,307.76 853.18,307.99 851.67,308.57 ZM 845.68 345.75 C844.73,347.54 843.69,349.00 843.37,349.00 C842.44,349.00 844.03,343.65 845.45,342.00 C846.16,341.17 846.54,339.94 846.29,339.25 C846.04,338.56 846.55,338.00 847.42,338.00 C849.10,338.00 849.50,339.17 848.25,340.42 C847.84,340.83 847.48,341.47 847.46,341.83 C847.44,342.20 846.64,343.96 845.68,345.75 ZM 796.43 370.68 C796.78,371.60 796.47,372.95 795.74,373.69 C794.63,374.80 794.09,374.79 792.49,373.62 C790.86,372.43 790.78,371.98 791.91,370.61 C793.64,368.53 795.62,368.56 796.43,370.68 ZM 828.52 362.25 C825.76,365.38 824.45,365.82 825.51,363.25 C825.90,362.29 826.45,360.71 826.73,359.75 C827.01,358.79 828.08,358.00 829.12,358.00 C831.58,358.00 831.45,358.91 828.52,362.25 ZM 816.00 333.06 C816.00,334.31 815.31,335.00 814.06,335.00 C811.37,335.00 810.46,333.11 812.29,331.29 C814.11,329.46 816.00,330.37 816.00,333.06 ZM 805.82 352.17 C805.42,354.89 803.69,355.53 802.06,353.58 C800.51,351.71 801.50,350.00 804.13,350.00 C805.62,350.00 806.06,350.56 805.82,352.17 ZM 844.00 340.39 C844.00,340.61 842.65,342.23 841.00,344.00 C837.88,347.34 837.31,346.94 838.98,342.57 C839.58,340.98 840.72,340.00 841.98,340.00 C843.09,340.00 844.00,340.18 844.00,340.39 ZM 877.53 351.96 C877.17,352.53 876.10,353.00 875.16,353.00 C873.17,353.00 872.74,349.31 874.64,348.58 C876.18,347.99 878.38,350.57 877.53,351.96 ZM 822.65 386.24 C823.06,386.91 823.80,386.62 824.65,385.46 C826.38,383.10 826.36,382.00 824.61,382.00 C822.97,382.00 821.71,384.72 822.65,386.24 ZM 869.78 319.44 C870.83,320.50 872.00,320.00 872.00,318.50 C872.00,317.67 872.03,316.67 872.08,316.27 C872.12,315.88 871.72,315.41 871.20,315.23 C870.15,314.88 868.90,318.56 869.78,319.44 ZM 872.48 379.97 C872.84,380.56 873.50,380.81 873.95,380.53 C875.07,379.84 875.99,376.00 875.03,376.00 C873.65,376.00 871.80,378.88 872.48,379.97 ZM 857.00 342.00 C857.00,342.55 856.55,343.00 856.00,343.00 C855.45,343.00 855.00,342.55 855.00,342.00 C855.00,341.45 855.45,341.00 856.00,341.00 C856.55,341.00 857.00,341.45 857.00,342.00 Z" fill="rgb(32,38,43)"/>
<path d="M 670.85 433.04 C666.65,432.69 662.54,431.86 661.73,431.19 C660.76,430.39 659.46,430.26 657.94,430.83 C655.14,431.86 644.81,430.05 640.46,427.77 C634.98,424.88 633.13,417.84 637.69,417.19 C638.94,417.01 641.97,418.37 644.88,420.42 C647.65,422.36 652.17,425.04 654.92,426.37 C659.27,428.47 660.37,428.64 663.22,427.64 C665.02,427.00 667.06,426.12 667.75,425.68 C669.64,424.47 669.26,420.12 666.57,412.21 C664.13,405.04 661.55,400.77 654.06,391.50 C650.94,387.64 650.02,385.64 650.01,382.72 C649.99,374.39 644.38,367.40 633.28,361.87 C624.20,357.34 621.40,354.00 626.70,354.00 C629.94,354.00 641.98,355.53 659.06,358.10 C672.58,360.14 687.00,360.62 687.00,359.02 C687.00,358.49 685.99,357.38 684.75,356.57 C682.33,354.99 643.67,341.34 630.50,337.42 C602.06,328.95 603.64,329.65 598.37,323.16 C593.56,317.22 589.06,314.11 585.20,314.04 C581.84,313.98 577.63,316.45 576.05,319.41 C575.28,320.84 573.94,322.00 573.05,322.00 C570.15,322.00 558.29,315.06 552.90,310.23 C544.91,303.05 542.00,297.85 542.00,290.76 C542.00,281.05 546.37,274.89 557.11,269.44 L 557.22 269.39 C560.76,267.60 562.13,266.90 562.66,267.31 C563.00,267.56 563.00,268.26 563.00,269.41 L 563.00 269.46 C563.00,271.18 561.89,272.68 559.36,274.40 C549.00,281.44 549.69,289.98 561.25,297.68 C570.76,304.00 579.03,307.26 615.50,319.02 C654.38,331.55 683.80,344.22 706.50,358.20 C709.25,359.89 712.95,361.89 714.73,362.64 L 717.96 364.01 L 731.73 353.69 C739.30,348.02 750.22,340.04 756.00,335.97 C768.43,327.21 782.51,313.95 787.71,306.12 C789.75,303.04 792.42,297.82 793.63,294.51 L 795.83 288.50 L 797.53 292.49 C799.97,298.23 799.14,308.87 795.73,315.56 C793.38,320.19 791.65,322.07 782.26,330.19 C780.55,331.67 772.26,337.00 763.83,342.05 C748.00,351.51 745.00,353.62 745.00,355.28 C745.00,356.88 754.61,355.15 765.73,351.54 C772.77,349.26 776.22,348.55 776.69,349.30 C777.06,349.91 777.50,353.35 777.65,356.95 C777.94,363.47 777.90,363.58 767.88,383.39 C760.40,398.16 757.94,403.94 758.31,405.89 C759.54,412.32 760.18,414.56 761.06,415.45 C762.43,416.83 762.21,419.58 760.63,420.89 C758.50,422.66 746.08,426.76 736.32,428.91 C721.54,432.18 686.99,434.36 670.85,433.04 ZM 617.50 169.59 C609.28,167.99 601.86,165.27 595.26,161.43 C589.46,158.06 575.71,144.98 572.21,139.50 C565.77,129.42 564.03,125.93 565.26,125.59 C565.94,125.41 568.97,124.54 572.00,123.66 C573.12,123.34 574.39,123.01 575.65,122.71 C571.14,123.88 567.23,125.53 568.24,126.15 C568.93,126.58 570.62,126.75 572.00,126.52 C614.53,119.43 634.61,123.35 653.35,142.42 C657.83,146.98 661.60,150.78 661.72,150.86 C662.05,151.07 661.88,150.48 661.41,149.48 C664.84,154.95 667.54,160.00 666.65,160.00 C666.40,160.00 663.79,158.36 660.85,156.35 C648.32,147.82 624.32,138.46 607.38,135.51 C593.06,133.01 592.80,133.88 606.50,138.44 C628.23,145.68 646.73,154.11 658.88,162.32 C664.07,165.82 663.76,166.11 652.53,168.41 C641.24,170.73 625.96,171.24 617.50,169.59 ZM 559.64 407.90 C545.57,406.42 536.73,399.83 535.35,389.79 L 534.62 384.50 L 532.15 392.50 L 532.08 387.68 C531.98,381.45 536.03,369.34 541.06,360.83 C543.22,357.16 548.27,350.69 552.27,346.45 C559.03,339.28 559.85,338.72 564.02,338.48 C569.31,338.18 573.78,340.51 581.77,347.73 C586.33,351.85 587.12,353.13 587.65,357.18 C587.98,359.75 587.98,362.93 587.66,364.23 C587.06,366.60 586.99,366.61 575.28,366.22 L 563.50 365.83 L 558.34 369.67 C553.40,373.34 550.39,376.73 551.28,377.61 C551.51,377.84 554.24,376.86 557.36,375.44 C562.77,372.96 578.00,370.72 578.00,372.40 C578.00,372.77 577.04,374.08 575.88,375.29 C570.48,380.90 567.49,394.89 569.86,403.46 C570.69,406.48 570.66,407.60 569.73,408.19 C569.05,408.62 568.28,408.92 568.00,408.85 C567.72,408.79 563.96,408.36 559.64,407.90 ZM 684.71 396.93 L 685.32 420.21 L 691.62 419.81 C695.09,419.59 698.14,419.19 698.41,418.92 C698.68,418.65 698.97,412.68 699.06,405.66 C699.21,393.19 699.26,392.93 701.11,394.60 C702.15,395.54 703.00,396.60 703.00,396.95 C703.00,397.87 714.35,410.01 715.20,410.00 C716.15,410.00 721.10,405.01 720.20,404.97 C719.82,404.95 720.56,404.05 721.86,402.97 C723.16,401.89 723.83,400.99 723.36,400.97 C722.89,400.95 723.49,400.10 724.71,399.09 C725.92,398.08 726.64,396.98 726.31,396.65 C725.98,396.32 726.45,395.76 727.35,395.42 C728.25,395.07 728.77,394.44 728.51,394.01 C728.24,393.58 728.69,392.67 729.51,391.99 C730.82,390.91 731.00,392.39 731.00,404.02 L 731.00 417.28 L 737.21 416.64 C740.62,416.28 743.71,415.65 744.08,415.24 C745.27,413.92 746.20,381.00 745.05,381.00 C744.43,381.00 744.00,378.47 744.00,374.88 L 744.00 368.77 L 737.25 369.49 C733.54,369.88 730.20,370.38 729.84,370.60 C729.48,370.82 725.94,375.55 721.98,381.10 C716.08,389.36 714.54,390.95 713.53,389.85 C712.85,389.11 709.26,384.79 705.55,380.25 L 698.82 372.00 L 691.97 372.00 C688.20,372.00 684.89,372.37 684.61,372.82 C684.33,373.27 684.38,384.12 684.71,396.93 ZM 615.37 521.08 C604.37,520.01 600.93,516.93 599.08,506.50 C597.43,497.25 596.90,480.30 598.17,477.52 C599.37,474.89 603.59,473.00 608.26,473.00 C611.00,473.00 611.16,473.20 610.48,475.75 C608.41,483.42 611.16,491.29 616.92,494.19 L 620.28 495.89 L 614.89 496.19 C610.17,496.46 609.46,496.78 609.18,498.75 C608.89,500.78 609.27,501.00 613.18,501.01 C615.56,501.01 619.30,501.55 621.50,502.21 L 625.50 503.41 L 618.85 504.03 C611.55,504.70 606.66,507.14 607.25,509.81 C607.45,510.74 608.27,511.34 609.06,511.14 C612.49,510.28 623.04,509.79 625.40,510.38 C628.92,511.27 635.00,516.79 635.00,519.10 C635.00,520.59 634.27,521.00 631.62,521.00 C629.77,521.00 626.96,521.17 625.38,521.39 C623.79,521.60 619.29,521.46 615.37,521.08 ZM 773.00 496.00 C770.80,493.80 769.00,491.18 769.00,490.17 C769.00,489.16 770.80,486.89 773.00,485.12 C776.67,482.17 777.00,481.51 777.00,477.06 C777.00,469.88 782.10,465.16 786.43,468.33 C788.16,469.59 788.10,469.88 785.13,473.98 C781.79,478.59 780.90,484.00 783.47,484.00 C784.29,484.00 785.62,482.70 786.44,481.12 C787.91,478.28 793.89,472.56 794.63,473.30 C794.84,473.51 794.03,475.47 792.83,477.66 C790.79,481.38 790.78,485.00 792.80,485.00 C793.28,485.00 795.39,482.50 797.49,479.45 C802.58,472.06 808.36,468.67 815.88,468.67 C818.97,468.67 822.58,469.24 823.88,469.94 C826.19,471.17 826.10,471.26 820.77,473.43 C813.06,476.56 808.86,479.25 798.07,487.92 C780.97,501.67 779.23,502.23 773.00,496.00 ZM 675.67 155.60 C674.53,142.09 671.32,132.47 663.85,120.15 C661.73,116.65 660.00,113.16 660.00,112.38 C660.00,110.46 665.39,107.33 669.01,107.03 C668.43,107.18 667.81,107.47 667.15,107.88 C666.15,108.52 666.39,108.88 668.15,109.33 C669.71,109.73 671.47,111.81 673.37,115.47 C675.20,119.00 676.84,121.05 677.50,121.02 C677.76,123.70 678.69,127.81 679.57,130.18 C679.85,130.95 680.13,132.06 680.39,133.41 C680.27,133.39 680.14,133.46 679.99,133.61 C679.43,134.17 679.26,136.06 679.61,137.81 C680.45,142.01 680.96,141.83 681.00,137.38 C681.31,139.86 681.55,142.67 681.67,145.50 L 682.17 156.50 L 676.33 163.37 ZM 576.61 402.42 C576.27,401.55 576.00,397.84 576.01,394.17 C576.03,383.40 580.81,375.00 586.93,375.00 C589.11,375.00 589.71,376.44 587.98,377.51 C584.92,379.41 582.66,390.94 583.98,398.00 C584.91,402.98 584.24,403.96 579.86,403.98 C578.36,403.99 576.95,403.32 576.61,402.42 ZM 671.21 107.16 C672.62,107.52 673.38,108.60 674.82,111.56 C675.28,112.52 675.75,113.73 676.16,115.01 C675.73,113.94 675.25,112.80 674.78,111.75 C673.66,109.24 672.51,107.73 671.21,107.16 Z" fill="rgb(84,91,79)"/>
<path d="M 706.50 349.76 C685.19,336.69 655.32,324.25 607.50,308.52 C577.62,298.69 573.67,297.09 572.48,294.29 C572.06,293.30 571.51,285.93 571.24,277.89 C570.56,257.29 573.47,243.75 582.49,225.50 C593.86,202.49 621.74,178.02 636.62,177.99 C639.30,177.98 646.90,176.87 653.50,175.51 C667.47,172.64 671.29,172.44 673.00,174.50 C675.11,177.04 678.92,176.37 680.03,173.25 C680.70,171.39 681.51,169.60 682.47,167.90 C682.17,168.56 682.00,169.12 682.00,169.53 C682.00,169.87 683.18,168.75 684.62,167.05 C691.11,159.33 704.22,154.03 716.98,153.96 C726.22,153.92 735.36,151.73 739.49,148.58 C741.42,147.10 743.00,145.75 743.00,145.57 C743.00,145.38 741.24,145.84 739.09,146.58 C738.63,146.74 738.13,146.90 737.61,147.05 C739.27,146.54 740.56,145.97 741.47,145.34 C744.52,143.27 745.22,143.72 744.46,147.25 C743.31,152.64 740.75,156.07 735.71,158.97 L 730.91 161.72 L 733.71 162.84 C734.75,163.26 735.86,163.66 737.02,164.02 C730.02,162.45 729.48,162.77 731.40,164.88 C732.89,166.54 736.66,167.93 743.50,169.35 C748.64,170.42 760.77,168.34 762.73,166.28 C762.69,166.98 762.39,168.05 761.86,169.52 C758.27,179.43 746.65,187.00 735.02,187.00 C729.41,187.00 727.79,186.54 723.02,183.62 C719.98,181.77 716.42,179.91 715.09,179.51 C712.96,178.85 713.15,179.32 716.79,183.63 C721.05,188.69 726.00,198.59 726.00,202.05 C726.00,204.31 725.36,204.25 713.50,200.83 C704.00,198.10 694.44,192.93 687.60,186.83 C684.47,184.04 681.65,182.02 681.33,182.33 C679.89,183.78 682.59,188.76 687.77,194.19 C695.99,202.82 709.11,208.71 724.83,210.83 C734.33,212.12 734.97,211.05 732.40,198.25 C731.77,195.11 731.86,195.00 735.06,195.00 C736.88,195.00 741.26,194.27 744.80,193.39 L 746.67 192.92 C746.27,193.06 745.87,193.22 745.50,193.38 L 742.50 194.67 L 746.00 196.48 C749.57,198.33 756.09,204.70 760.84,211.00 C762.30,212.93 763.78,214.73 764.14,215.00 C764.50,215.27 767.14,219.28 770.01,223.91 C779.55,239.31 786.01,262.67 786.25,282.70 C786.34,290.17 786.61,292.44 787.33,291.45 C786.69,294.05 785.84,296.36 784.77,298.48 C781.39,305.12 767.42,318.47 751.50,330.26 C743.25,336.37 732.23,344.54 727.01,348.43 C721.79,352.32 717.29,355.59 717.01,355.69 C716.73,355.80 712.00,353.13 706.50,349.76 ZM 614.30 409.50 C612.67,408.36 611.51,408.24 609.51,409.00 C601.83,411.92 594.56,408.43 591.73,400.48 C589.67,394.65 589.99,386.86 592.50,382.00 C593.16,380.72 594.22,379.24 595.50,377.72 C595.14,378.21 594.82,378.68 594.56,379.14 L 592.62 382.50 L 596.06 379.73 C597.95,378.20 601.94,375.28 604.92,373.23 C610.15,369.63 610.63,369.50 618.92,369.52 C628.16,369.54 631.01,370.53 638.30,376.26 C640.11,377.69 641.82,378.71 642.43,378.75 C643.18,380.88 642.96,382.79 641.45,384.05 C640.14,385.13 638.73,384.74 632.70,381.65 C626.33,378.40 622.00,377.10 622.00,378.45 C622.00,378.70 624.22,381.12 626.93,383.84 C632.73,389.64 634.24,394.45 631.55,398.56 L 629.88 401.11 L 626.41 398.05 C623.44,395.45 621.00,394.21 621.00,395.31 C621.00,395.47 622.12,397.14 623.50,399.00 C626.61,403.22 626.67,406.03 623.69,408.83 C620.99,411.36 617.33,411.62 614.30,409.50 ZM 659.46 460.44 C646.38,458.25 628.37,451.24 617.80,444.25 C615.69,442.85 614.13,441.53 614.35,441.32 C614.56,441.11 620.44,442.09 627.41,443.50 C642.87,446.63 666.44,448.99 682.28,449.00 C697.19,449.00 719.95,446.64 735.72,443.46 C742.44,442.11 748.29,441.00 748.72,441.00 C750.01,441.01 740.90,446.90 734.50,450.20 C726.22,454.46 713.11,458.78 703.12,460.53 C692.80,462.34 670.47,462.30 659.46,460.44 ZM 716.83 316.46 C719.69,315.61 723.58,313.55 725.47,311.89 C729.88,308.02 734.03,299.54 734.30,293.90 C734.54,288.74 733.89,288.60 725.00,291.90 C714.73,295.70 697.89,294.09 689.34,288.49 C679.12,281.79 681.10,299.99 691.71,310.25 C695.62,314.04 704.31,317.90 709.07,317.96 C710.48,317.98 713.98,317.31 716.83,316.46 ZM 624.00 489.92 C619.60,488.63 617.00,485.63 617.00,481.82 C617.00,476.99 618.63,475.00 622.57,475.00 C627.75,475.00 632.82,472.50 634.77,468.97 C636.14,466.49 636.85,465.03 638.01,464.38 C639.62,463.47 642.09,464.10 648.40,465.72 C648.89,465.85 649.40,465.98 649.93,466.11 C656.22,467.72 661.54,469.20 661.75,469.42 C662.43,470.10 658.90,476.31 655.36,480.68 C648.93,488.63 634.33,492.93 624.00,489.92 ZM 760.45 479.25 C754.78,469.43 750.87,465.04 744.32,461.11 L 737.80 457.21 L 744.65 453.18 C748.42,450.96 753.05,447.99 754.94,446.57 C756.84,445.16 758.94,444.00 759.61,444.00 C760.19,444.00 761.41,444.79 762.91,446.00 C762.89,446.00 762.87,446.00 762.85,446.00 C761.21,446.00 762.04,447.70 766.46,453.39 C768.91,456.55 771.48,460.68 772.16,462.57 C772.84,464.46 773.78,466.00 774.23,466.00 C774.32,466.00 774.40,465.99 774.48,465.97 C774.20,466.34 773.87,466.74 773.50,467.18 C771.72,469.30 770.99,471.36 770.98,474.33 C770.96,478.03 770.52,478.81 767.07,481.25 L 763.19 484.00 ZM 455.19 607.98 C448.72,604.03 446.24,593.47 449.90,585.42 C453.80,576.83 461.14,574.55 467.35,580.00 C474.85,586.59 474.33,601.66 466.39,607.91 C463.04,610.54 459.43,610.56 455.19,607.98 ZM 685.11 271.99 C689.43,256.46 677.17,242.09 666.94,250.70 C661.71,255.10 659.95,261.48 661.62,269.88 L 662.25 273.00 L 669.38 273.10 C673.29,273.15 677.62,273.56 679.00,274.01 C682.80,275.24 684.34,274.73 685.11,271.99 ZM 855.94 427.03 C853.82,428.11 851.05,428.98 849.79,428.96 C844.13,428.86 838.41,424.20 836.54,418.16 C833.82,409.43 844.01,398.53 853.03,400.51 C859.36,401.90 865.31,410.00 860.00,410.00 C858.90,410.00 855.77,411.24 853.03,412.75 L 848.07 415.50 L 846.48 413.25 C844.85,410.95 842.00,410.17 842.00,412.03 C842.00,413.82 844.75,419.72 845.91,420.44 C846.89,421.05 856.92,415.76 861.00,412.48 C862.93,410.93 869.00,409.77 869.00,410.95 C869.00,411.45 867.88,412.74 866.50,413.82 C865.12,414.90 864.00,416.34 864.00,417.03 C864.00,419.70 859.60,425.16 855.94,427.03 ZM 740.35 272.50 C742.32,271.67 746.38,271.00 749.36,271.00 C755.55,271.00 756.01,270.45 755.98,263.17 C755.95,257.63 753.14,250.91 749.89,248.63 C748.60,247.73 745.82,247.00 743.70,247.00 C734.48,247.00 729.55,259.53 734.16,271.25 C735.42,274.45 735.60,274.48 740.35,272.50 ZM 885.39 414.02 C882.23,412.74 879.00,408.11 879.00,404.85 L 879.00 401.97 L 883.97 404.48 C891.14,408.12 891.80,407.60 886.54,402.48 C882.17,398.24 881.91,397.69 882.20,393.34 C882.64,386.58 884.53,385.89 890.35,390.34 C893.53,392.76 897.02,394.34 901.03,395.17 C904.32,395.85 907.00,396.72 907.00,397.11 C907.00,397.50 905.09,400.66 902.75,404.14 C896.52,413.41 891.27,416.40 885.39,414.02 ZM 653.68 142.48 C656.18,145.14 658.45,147.54 659.93,149.09 C658.39,147.54 655.99,145.11 653.35,142.42 C634.61,123.35 614.53,119.43 572.00,126.52 C571.70,126.57 571.39,126.60 571.08,126.61 C572.21,126.40 573.49,125.77 574.98,124.73 C577.70,122.82 576.49,122.54 571.64,123.93 C572.82,123.51 574.20,123.08 575.65,122.71 C577.80,122.20 579.93,121.77 581.22,121.61 C583.26,121.36 585.33,120.91 585.82,120.61 C586.31,120.31 590.00,119.81 594.02,119.51 C598.05,119.20 602.27,118.72 603.42,118.45 C606.70,117.64 624.25,119.78 625.05,121.08 C625.45,121.73 626.21,121.99 626.74,121.66 C627.89,120.95 634.00,123.10 634.00,124.22 C634.00,124.65 634.75,125.00 635.66,125.00 C638.36,125.00 645.69,130.20 651.59,136.19 C648.71,133.33 645.91,131.00 645.03,131.00 C644.43,131.00 643.69,130.36 643.39,129.57 C643.09,128.78 641.47,127.66 639.81,127.08 C636.81,126.04 636.79,126.05 638.31,128.26 C639.15,129.49 640.35,130.38 640.97,130.23 C642.05,129.98 645.22,131.86 646.03,133.00 C646.14,133.01 646.54,133.31 647.25,133.87 C648.21,134.63 649.00,135.41 649.00,135.62 C649.00,136.45 648.18,135.92 646.87,134.25 C646.58,133.88 646.36,133.59 646.21,133.38 C646.22,133.46 646.21,133.53 646.18,133.59 C646.00,133.89 649.38,137.89 653.68,142.48 ZM 663.35 236.00 C667.11,233.88 670.00,233.00 673.25,233.00 C675.77,233.00 678.55,232.73 679.42,232.39 C681.30,231.67 681.56,226.47 679.77,225.36 C677.44,223.92 668.28,224.81 664.24,226.88 C658.13,229.99 653.51,236.17 655.67,238.33 C656.77,239.44 657.80,239.13 663.35,236.00 ZM 902.00 344.12 C902.00,345.85 900.67,345.43 845.50,326.23 C820.99,317.70 819.14,317.07 819.01,316.20 C819.00,316.13 819.00,316.05 819.00,315.97 C819.00,315.95 819.00,315.92 819.00,315.89 C819.00,315.40 819.13,315.00 819.30,315.00 C819.80,315.00 856.27,327.45 878.00,335.04 C889.28,338.98 899.29,342.43 900.25,342.72 C901.21,343.00 902.00,343.63 902.00,344.12 ZM 898.25 388.51 C891.52,385.58 887.98,379.42 891.20,376.20 C893.00,374.40 896.42,374.74 901.55,377.24 C902.39,377.64 903.08,377.97 903.65,378.23 C903.21,378.04 902.69,377.81 902.09,377.54 C897.75,375.58 895.90,375.97 897.93,378.41 C899.07,379.79 903.16,381.13 907.45,381.52 C908.52,381.62 909.57,382.21 909.78,382.85 C910.16,383.97 911.04,384.22 911.57,383.74 C911.55,383.89 911.51,384.04 911.47,384.18 C909.73,389.90 905.01,391.45 898.25,388.51 ZM 701.50 310.60 C697.90,309.01 693.00,304.26 693.00,302.36 C693.00,300.65 700.17,300.53 706.81,302.14 C711.95,303.38 718.00,307.33 718.00,309.43 C718.00,312.15 706.80,312.94 701.50,310.60 ZM 758.79 234.87 C759.21,232.65 754.72,227.57 750.61,225.62 C746.15,223.50 739.19,223.52 736.83,225.65 C734.59,227.68 734.55,228.41 736.57,230.43 C737.51,231.37 739.86,232.00 742.41,232.00 C745.07,232.00 748.35,232.92 751.09,234.44 C755.99,237.15 758.32,237.28 758.79,234.87 ZM 830.59 306.35 C827.16,308.60 826.40,308.42 826.95,305.50 C827.06,304.95 826.57,305.06 825.87,305.75 C825.17,306.44 824.27,307.00 823.86,307.00 C822.59,307.00 823.28,302.59 824.83,300.75 C825.64,299.79 825.90,298.99 825.40,298.98 C823.97,298.94 829.34,295.05 830.86,295.02 C831.66,295.01 831.98,295.62 831.64,296.50 C830.95,298.29 832.13,298.47 833.78,296.82 C835.41,295.19 835.92,296.00 835.30,299.25 C835.00,300.76 834.16,302.00 833.41,302.00 C832.67,302.00 832.30,302.61 832.58,303.35 C832.87,304.10 831.97,305.44 830.59,306.35 ZM 621.00 220.15 C621.00,222.65 623.54,222.49 625.37,219.88 C626.52,218.25 626.59,217.47 625.68,216.47 C624.72,215.43 624.17,215.48 622.75,216.75 C621.79,217.61 621.00,219.14 621.00,220.15 ZM 671.21 107.16 C672.51,107.73 673.66,109.24 674.78,111.75 C674.93,112.08 675.08,112.42 675.22,112.77 C675.05,112.43 674.88,112.09 674.69,111.75 C673.56,109.69 672.17,108.00 671.62,108.00 C671.03,108.00 671.11,108.51 671.80,109.20 C672.46,109.86 673.00,111.48 673.00,112.80 C673.00,113.73 673.39,115.19 673.94,116.53 C673.76,116.19 673.57,115.84 673.37,115.47 C671.47,111.81 669.71,109.73 668.15,109.33 C666.39,108.88 666.15,108.52 667.15,107.88 C667.81,107.47 668.43,107.18 669.01,107.03 C669.19,107.01 669.37,107.00 669.55,107.00 C670.21,107.00 670.74,107.04 671.21,107.16 ZM 787.99 288.27 C788.29,285.07 788.45,279.66 788.41,273.00 C788.39,268.24 788.34,264.70 788.19,261.78 C788.43,264.18 788.61,266.65 788.72,269.19 C789.07,277.02 788.85,283.18 787.99,288.27 ZM 680.39 133.41 C680.61,134.58 680.82,135.92 681.00,137.38 C680.96,141.83 680.45,142.01 679.61,137.81 C679.26,136.06 679.43,134.17 679.99,133.61 C680.14,133.46 680.27,133.39 680.39,133.41 ZM 767.90 209.60 C761.79,202.06 751.99,192.15 750.15,192.05 L 751.22 191.78 L 757.68 198.14 C761.68,202.07 764.98,205.74 767.90,209.60 ZM 639.73 374.39 C637.15,371.92 633.43,369.13 630.74,367.97 C634.44,369.57 637.57,371.92 639.73,374.39 ZM 733.73 148.03 C728.87,149.07 722.94,149.81 717.81,149.97 C724.41,149.50 729.71,148.85 733.73,148.03 ZM 688.38 160.19 C690.27,158.34 692.38,156.72 694.67,155.37 C697.43,153.74 699.65,152.67 702.46,151.91 C697.38,153.50 692.92,156.08 688.88,159.73 C688.71,159.88 688.55,160.03 688.38,160.19 ZM 774.25 458.49 C773.27,456.89 771.53,454.64 769.70,452.48 C771.68,454.64 773.35,456.73 774.06,458.11 C774.12,458.24 774.19,458.37 774.25,458.49 ZM 630.74 367.97 C626.76,366.25 621.40,365.44 616.61,365.61 C621.39,365.37 626.55,366.15 630.74,367.97 ZM 775.68 463.95 C775.77,462.94 775.59,461.65 775.13,460.31 C775.83,461.90 776.02,462.91 775.68,463.95 ZM 762.35 165.28 C762.05,165.29 761.67,165.38 761.25,165.57 C760.82,165.76 760.34,165.93 759.82,166.08 C759.94,166.03 760.05,165.97 760.15,165.92 C761.22,165.34 761.95,165.11 762.35,165.28 ZM 910.78 378.46 C910.13,377.12 909.38,376.03 908.91,376.00 C909.56,376.00 910.25,377.06 910.78,378.46 ZM 607.35 367.78 C606.02,368.51 604.66,369.38 603.34,370.34 C604.66,369.34 605.96,368.50 607.15,367.88 C607.22,367.84 607.28,367.81 607.35,367.78 ZM 783.08 238.27 C782.30,236.09 781.44,233.89 780.51,231.71 C781.46,233.89 782.31,236.08 783.08,238.27 ZM 677.50 121.00 L 677.50 121.02 C677.43,121.02 677.35,121.00 677.26,120.96 C677.35,120.94 677.42,120.88 677.48,120.79 C677.49,120.86 677.49,120.93 677.50,121.00 ZM 661.39 149.45 L 661.41 149.48 C661.81,150.33 661.99,150.89 661.84,150.90 C661.94,150.79 661.76,150.25 661.39,149.45 ZM 646.03 133.00 C645.95,132.98 646.01,133.11 646.21,133.38 C646.19,133.27 646.13,133.14 646.03,133.00 ZM 568.20 126.13 C568.26,126.16 568.32,126.20 568.38,126.23 C568.33,126.21 568.28,126.18 568.24,126.15 C568.22,126.14 568.21,126.13 568.19,126.12 ZM 716.70 621.85 C717.02,621.85 717.35,621.85 717.68,621.85 C717.82,621.85 717.96,621.85 718.10,621.85 C717.62,621.85 717.15,621.85 716.70,621.85 Z" fill="rgb(240,142,46)"/>
<path d="M 0.00 378.00 L 0.00 0.00 L 693.50 0.00 L 1387.00 0.00 L 1387.00 378.00 L 1387.00 756.00 L 693.50 756.00 L 0.00 756.00 L 0.00 378.00 ZM 662.71 659.55 C665.96,655.77 666.61,650.68 664.44,645.87 C661.41,639.16 653.79,637.00 647.23,641.00 C643.46,643.30 642.00,646.43 642.00,652.20 C642.00,655.55 642.61,656.84 645.50,659.56 C647.42,661.38 650.01,663.02 651.25,663.21 C655.24,663.83 660.44,662.17 662.71,659.55 ZM 511.80 656.24 C512.09,650.14 513.28,648.16 514.45,651.84 C514.77,652.85 516.11,654.69 517.42,655.93 L 519.81 658.17 L 522.66 653.34 L 525.50 648.50 L 526.00 655.50 C526.44,661.67 526.74,662.50 528.50,662.50 C530.38,662.50 530.50,661.83 530.50,651.00 L 530.50 639.50 L 528.06 639.50 C526.18,639.50 524.89,640.73 522.39,644.89 L 519.15 650.28 L 515.51 644.58 C512.66,640.12 511.39,638.95 509.68,639.19 C507.62,639.48 507.48,640.08 507.21,649.93 C506.89,661.60 507.22,663.29 509.75,662.81 C511.15,662.55 511.56,661.25 511.80,656.24 ZM 542.00 660.50 C542.84,658.30 543.54,658.00 547.86,658.00 C551.99,658.00 553.03,658.40 554.41,660.50 C556.06,663.02 558.41,663.77 559.44,662.10 C560.19,660.89 551.46,640.73 549.68,639.59 C548.91,639.09 547.65,638.92 546.89,639.21 C545.20,639.86 535.74,660.77 536.54,662.07 C537.71,663.95 541.05,662.99 542.00,660.50 ZM 570.00 659.00 C570.72,653.98 573.28,653.96 576.58,658.94 C579.15,662.83 582.17,664.16 583.50,661.99 C583.85,661.44 583.17,659.64 581.99,657.99 L 579.86 654.99 L 581.93 652.36 C584.39,649.23 584.59,645.29 582.44,642.22 C581.06,640.24 580.02,640.00 572.94,640.00 L 565.00 640.00 L 565.00 650.83 C565.00,656.79 565.32,661.98 565.70,662.37 C567.34,664.01 569.53,662.29 570.00,659.00 ZM 596.00 658.57 C596.28,656.42 597.00,654.49 597.60,654.29 C598.21,654.10 600.38,655.97 602.42,658.47 C604.46,660.96 606.75,663.00 607.51,663.00 C610.44,663.00 610.04,660.64 606.14,655.09 L 602.09 649.31 L 605.54 645.96 C607.44,644.12 609.00,641.80 609.00,640.80 C609.00,637.39 605.23,638.94 600.61,644.25 L 596.05 649.50 L 596.01 645.50 C595.96,640.67 594.76,638.49 592.60,639.32 C591.27,639.83 591.00,641.76 591.00,650.80 C591.00,656.78 591.32,661.98 591.70,662.37 C593.45,664.12 595.53,662.28 596.00,658.57 ZM 632.39 659.96 C636.41,656.43 637.61,652.39 636.05,647.65 C633.92,641.20 628.11,638.32 619.90,639.63 L 616.00 640.26 L 616.00 650.96 C616.00,656.85 616.30,661.97 616.67,662.33 C617.03,662.70 619.94,663.00 623.13,663.00 C628.17,663.00 629.39,662.60 632.39,659.96 ZM 683.48 657.25 C686.39,646.90 685.99,646.99 689.21,656.04 C691.17,661.53 691.87,662.50 693.89,662.50 C696.02,662.50 696.63,661.42 699.70,652.13 C703.14,641.69 703.32,639.00 700.57,639.00 C698.79,639.00 697.51,641.20 696.49,646.00 C696.08,647.92 695.31,650.62 694.77,652.00 C693.87,654.30 693.59,653.90 691.15,647.00 C689.12,641.24 688.06,639.50 686.61,639.50 C684.30,639.50 683.49,640.87 681.44,648.26 C680.57,651.43 679.51,653.82 679.10,653.56 C678.68,653.30 677.74,650.58 677.00,647.51 C675.39,640.77 673.87,638.45 671.64,639.31 C668.95,640.34 669.36,642.27 676.48,661.75 C676.73,662.44 678.04,663.00 679.40,663.00 C681.54,663.00 682.07,662.25 683.48,657.25 ZM 713.47 660.75 C713.75,659.51 714.09,656.49 714.24,654.04 L 714.50 649.57 L 719.81 656.35 C727.49,666.13 728.50,665.51 728.50,650.99 C728.50,640.17 728.38,639.50 726.50,639.50 C724.75,639.50 724.46,640.27 724.20,645.75 C724.04,649.19 723.59,651.98 723.20,651.96 C722.82,651.94 720.33,648.98 717.68,645.40 C710.77,636.05 709.58,636.68 709.21,649.94 C709.06,655.68 709.15,660.96 709.43,661.68 C710.25,663.81 712.92,663.19 713.47,660.75 ZM 765.00 661.05 C765.00,659.38 764.18,659.06 759.25,658.80 C754.16,658.53 753.46,658.24 753.18,656.25 C752.89,654.21 753.27,654.00 757.31,654.00 C761.79,654.00 764.79,652.09 763.53,650.04 C763.17,649.47 760.66,649.00 757.94,649.00 C753.36,649.00 753.00,648.82 753.00,646.55 C753.00,644.27 753.40,644.08 758.74,643.80 C763.27,643.56 764.55,643.13 764.81,641.75 C765.11,640.19 764.20,640.00 756.57,640.00 L 748.00 640.00 L 748.00 650.83 C748.00,656.79 748.30,661.97 748.67,662.33 C749.03,662.70 752.86,663.00 757.17,663.00 C764.27,663.00 765.00,662.82 765.00,661.05 ZM 786.78 661.44 C793.45,656.77 793.54,644.88 786.94,641.47 C785.29,640.62 781.36,640.00 777.55,640.00 L 771.00 640.00 L 771.00 650.83 C771.00,656.79 771.30,661.97 771.67,662.33 C773.03,663.70 784.53,663.02 786.78,661.44 ZM 802.78 651.25 C802.52,640.26 802.37,639.50 800.50,639.50 C798.65,639.50 798.48,640.26 798.21,649.93 C797.89,661.81 798.14,663.00 801.00,663.00 C802.98,663.00 803.05,662.54 802.78,651.25 ZM 821.00 653.50 L 821.00 644.00 L 824.50 644.00 C827.27,644.00 828.00,643.60 828.00,642.11 C828.00,639.61 826.99,639.39 817.25,639.80 C809.90,640.11 809.00,640.36 809.00,642.08 C809.00,643.61 809.71,644.00 812.50,644.00 L 816.00 644.00 L 816.00 652.83 C816.00,662.18 816.26,663.00 819.17,663.00 C820.82,663.00 821.00,662.05 821.00,653.50 ZM 850.78 661.44 C860.14,654.88 855.66,639.00 844.45,639.00 C832.37,639.00 827.37,655.79 837.76,661.43 C841.37,663.39 847.99,663.39 850.78,661.44 ZM 867.00 659.47 C867.00,654.03 869.56,653.80 873.90,658.85 C879.32,665.14 884.02,663.66 878.98,657.25 L 876.96 654.68 L 878.98 652.52 C881.45,649.89 881.64,644.37 879.35,641.83 C878.01,640.35 876.18,640.00 869.85,640.00 L 862.00 640.00 L 862.00 650.83 C862.00,656.79 862.30,661.97 862.67,662.33 C863.03,662.70 864.16,663.00 865.17,663.00 C866.60,663.00 867.00,662.23 867.00,659.47 ZM 471.50 620.13 C476.26,617.97 482.34,611.50 484.51,606.31 C488.42,596.96 487.19,583.48 481.68,575.30 C471.58,560.30 446.29,561.87 438.02,578.00 C435.39,583.15 433.71,592.55 434.48,597.87 C435.98,608.32 442.78,617.61 451.14,620.63 C456.33,622.51 466.84,622.25 471.50,620.13 ZM 504.78 620.44 C506.78,619.04 507.00,618.03 507.00,610.44 L 507.00 602.00 L 509.75 602.01 C512.15,602.02 513.00,602.97 516.50,609.60 C522.49,620.96 527.38,624.22 532.78,620.44 C536.17,618.07 535.56,614.19 530.57,606.45 L 526.15 599.57 L 530.00 595.39 C538.18,586.51 535.96,572.61 525.60,567.91 C520.02,565.37 498.02,565.13 495.57,567.57 C494.23,568.92 494.00,572.74 494.00,594.01 C494.00,618.58 494.03,618.91 496.22,620.44 C497.44,621.30 499.37,622.00 500.50,622.00 C501.63,622.00 503.56,621.30 504.78,620.44 ZM 549.40 621.04 C551.33,620.31 552.30,618.77 553.54,614.50 L 555.16 608.92 L 563.75 609.21 L 572.33 609.50 L 573.99 614.50 C575.91,620.27 579.21,622.55 584.10,621.48 C590.19,620.14 590.02,618.37 581.42,593.32 C572.74,568.03 570.95,565.00 564.62,565.00 C558.36,565.00 556.32,566.68 553.15,574.40 C547.45,588.31 538.83,615.90 539.51,618.04 C540.57,621.37 545.00,622.71 549.40,621.04 ZM 606.47 619.94 C607.04,619.37 607.72,612.54 608.00,604.75 L 608.50 590.59 L 616.00 602.98 C620.12,609.79 624.68,616.61 626.12,618.13 C629.52,621.71 633.59,622.74 636.93,620.87 L 639.50 619.42 L 639.77 593.75 L 640.03 568.07 L 637.52 566.42 C635.84,565.32 634.11,565.01 632.26,565.47 C627.19,566.74 627.00,567.33 627.00,581.62 C627.00,588.98 626.66,594.98 626.25,594.96 C625.84,594.94 622.72,590.33 619.33,584.71 C615.93,579.10 611.77,572.59 610.07,570.25 C607.16,566.24 606.71,566.00 602.05,566.00 C594.08,566.00 594.00,566.28 594.02,593.97 C594.02,606.91 594.36,617.99 594.77,618.59 C596.98,621.85 603.76,622.63 606.47,619.94 ZM 686.80 619.62 C693.64,616.05 694.00,615.18 694.00,602.54 C694.00,589.01 693.99,589.00 683.15,589.00 C674.78,589.00 673.13,589.54 671.95,592.64 C670.39,596.74 672.36,599.87 676.97,600.61 C680.85,601.23 681.00,601.40 681.00,605.02 C681.00,609.17 679.93,610.00 674.57,610.00 C667.25,610.00 661.00,602.51 661.00,593.72 C661.00,580.75 670.11,574.19 681.56,578.94 C687.64,581.46 690.53,580.73 691.62,576.40 C693.40,569.30 685.41,564.48 673.09,565.22 C655.83,566.25 646.13,577.74 647.21,595.87 C647.97,608.41 653.60,616.85 663.75,620.63 C668.83,622.53 682.39,621.93 686.80,619.62 ZM 736.00 620.71 C737.92,619.75 738.58,618.54 738.82,615.52 C739.29,609.79 737.66,609.00 725.31,609.00 L 715.00 609.00 L 715.00 604.00 L 715.00 599.00 L 723.17 599.00 C732.38,599.00 735.00,597.65 735.00,592.92 C735.00,588.11 732.82,587.00 723.43,587.00 L 715.00 587.00 L 715.00 582.50 L 715.00 578.00 L 725.00 578.00 C733.67,578.00 735.27,577.73 737.00,576.00 C739.20,573.80 739.55,570.90 737.96,567.93 C737.01,566.15 735.73,566.00 721.04,566.00 C707.92,566.00 704.87,566.27 703.57,567.57 C702.23,568.91 702.00,572.68 702.00,593.42 C702.00,623.81 700.55,621.69 721.50,621.87 C729.34,621.94 734.37,621.53 736.00,620.71 ZM 757.10 619.90 C759.05,617.95 759.17,616.93 758.85,604.40 C758.66,597.03 758.72,591.01 759.00,591.02 C759.28,591.03 761.35,594.52 763.60,598.77 C768.02,607.10 771.08,609.70 775.23,608.66 C777.23,608.15 778.80,606.09 782.16,599.51 C784.55,594.83 786.84,591.01 787.25,591.00 C787.66,591.00 788.00,597.27 788.00,604.94 C788.00,618.22 788.11,618.96 790.22,620.44 C793.25,622.57 796.60,622.40 799.00,620.00 C800.88,618.12 801.00,616.67 801.00,594.95 C801.00,567.05 800.71,566.00 793.03,566.00 C787.16,566.00 786.04,567.22 778.47,581.75 C775.81,586.84 773.39,590.99 773.07,590.97 C772.76,590.96 769.61,585.52 766.08,578.88 C758.93,565.46 757.25,564.03 750.85,565.93 C748.85,566.53 746.95,567.69 746.63,568.52 C746.32,569.34 746.01,580.92 745.96,594.25 C745.87,617.98 745.91,618.51 748.05,620.24 C750.96,622.59 754.54,622.46 757.10,619.90 ZM 816.70 620.50 C817.88,619.67 819.59,616.73 820.51,613.96 L 822.19 608.92 L 830.80 609.21 L 839.42 609.50 L 840.71 613.96 C842.27,619.36 843.55,620.76 847.70,621.59 C850.25,622.10 851.35,621.74 853.36,619.74 C855.56,617.53 855.74,616.80 854.95,613.37 C853.12,605.39 839.93,569.48 838.19,567.74 C834.41,563.97 824.31,564.69 822.06,568.89 C821.59,569.77 817.74,580.53 813.50,592.79 C805.41,616.22 804.96,619.24 809.28,620.98 C812.54,622.29 814.30,622.18 816.70,620.50 ZM 873.00 620.00 C874.67,618.33 875.00,616.67 875.00,610.00 L 875.00 602.00 L 877.75 602.01 C880.18,602.01 881.02,603.00 885.00,610.58 C889.95,620.01 893.05,622.59 898.08,621.48 C900.96,620.85 903.00,618.48 903.00,615.76 C903.00,614.57 900.01,609.17 894.99,601.31 C893.71,599.30 893.83,598.92 896.31,596.97 C904.07,590.87 904.79,578.05 897.77,571.28 C893.01,566.69 890.24,566.00 876.49,566.00 C864.83,566.00 864.02,566.13 862.56,568.22 C861.25,570.08 861.00,574.28 861.02,593.97 C861.02,606.91 861.36,617.99 861.77,618.59 C864.21,622.19 870.07,622.93 873.00,620.00 ZM 920.78 620.44 C922.72,619.08 923.00,617.99 923.00,611.77 C923.00,606.56 923.44,604.17 924.65,602.83 C925.57,601.82 926.64,601.00 927.05,601.00 C927.45,601.00 930.54,605.03 933.92,609.96 C937.30,614.90 941.05,619.62 942.25,620.46 C948.56,624.88 955.60,618.72 951.97,611.95 C951.41,610.90 947.99,606.09 944.37,601.27 C940.76,596.45 937.57,591.92 937.28,591.22 C937.00,590.52 939.44,586.92 942.71,583.22 C951.37,573.44 952.52,571.44 951.18,568.49 C949.81,565.49 945.87,564.38 942.23,565.96 C940.73,566.61 935.90,571.67 931.50,577.19 L 923.50 587.24 L 923.25 578.87 C922.89,567.01 922.61,566.20 918.49,565.43 C916.03,564.97 914.25,565.26 912.48,566.42 L 909.97 568.07 L 910.23 593.76 L 910.50 619.44 L 913.00 620.71 C916.31,622.38 918.10,622.32 920.78,620.44 ZM 638.38 534.11 C639.95,532.64 641.37,529.70 642.11,526.40 C643.69,519.36 641.59,513.56 635.56,508.26 C631.66,504.84 631.35,504.22 632.10,501.48 C632.87,498.71 633.47,498.37 639.54,497.22 C643.17,496.53 648.25,494.89 650.84,493.58 C656.95,490.49 664.49,482.36 667.64,475.47 L 670.15 470.00 L 679.32 469.99 C692.21,469.98 704.13,468.45 715.63,465.33 C727.85,462.01 729.07,462.02 736.83,465.50 C743.92,468.68 749.79,474.54 754.47,483.08 C756.85,487.43 757.38,489.51 757.17,493.63 C756.69,502.85 764.87,522.85 770.27,525.64 C775.31,528.25 783.24,526.96 794.17,521.77 C819.51,509.73 840.00,491.89 840.00,481.86 C840.00,477.40 837.32,471.53 833.85,468.37 C826.51,461.70 815.02,460.56 804.29,465.42 C798.25,468.16 793.00,468.42 793.00,465.98 C793.00,463.94 788.89,461.00 786.03,461.00 C783.42,461.00 782.73,460.33 780.34,455.43 C778.64,451.96 775.16,447.58 771.12,443.79 L 764.63 437.72 L 767.72 435.11 C769.42,433.67 771.94,431.72 773.32,430.77 C774.70,429.81 776.88,426.79 778.17,424.06 C779.49,421.23 781.18,419.06 782.09,419.04 C782.96,419.02 801.36,426.45 822.97,435.55 C844.59,444.65 863.22,451.97 864.39,451.80 C866.00,451.57 868.30,447.97 874.15,436.50 L 881.81 421.50 L 887.40 421.84 C895.05,422.31 900.88,419.41 905.94,412.63 C910.43,406.63 913.48,400.77 914.44,396.35 C914.81,394.61 915.99,391.48 917.06,389.39 C920.16,383.30 919.10,375.56 914.49,370.58 C913.12,369.11 912.00,367.47 912.00,366.94 C912.00,366.42 917.88,354.23 925.07,339.85 C933.94,322.14 937.98,313.04 937.62,311.61 C937.16,309.79 929.27,306.89 882.06,291.17 C851.42,280.97 826.24,273.11 825.25,273.42 C824.19,273.76 819.91,280.82 814.75,290.74 L 806.04 307.50 L 806.00 300.00 C805.95,291.89 803.83,285.60 799.57,281.00 C797.60,278.87 797.17,277.07 796.66,268.88 C794.85,239.48 784.51,215.16 765.14,194.79 L 757.78 187.04 L 762.38 181.92 C768.68,174.92 772.86,161.49 770.10,157.13 C769.37,155.98 768.46,156.01 764.37,157.33 C757.99,159.38 750.82,160.27 749.24,159.21 C748.24,158.54 748.35,157.63 749.74,154.93 C752.20,150.13 752.21,137.78 749.74,135.31 C748.06,133.63 747.85,133.63 745.24,135.32 C738.09,139.95 733.53,141.14 718.00,142.46 C703.06,143.73 696.90,145.18 691.25,148.79 C689.01,150.23 689.00,150.21 689.00,144.25 C689.00,130.14 682.82,108.10 677.33,102.60 C675.42,100.69 673.69,100.00 670.85,100.00 C662.91,100.00 653.00,107.07 653.00,112.74 C653.00,114.17 654.96,118.52 657.35,122.42 C659.74,126.31 661.95,130.18 662.26,131.00 C662.57,131.82 663.54,134.19 664.42,136.25 C666.55,141.21 665.19,141.00 661.19,135.75 C653.74,125.96 639.46,116.77 626.50,113.42 C617.21,111.03 596.78,110.99 585.00,113.34 C573.76,115.59 559.85,119.82 558.08,121.54 C554.42,125.08 564.41,142.66 577.39,155.55 C584.97,163.08 588.10,165.39 596.00,169.31 C601.22,171.90 608.11,174.73 611.30,175.59 L 617.09 177.17 L 611.30 181.21 C595.47,192.24 583.45,206.24 574.98,223.50 C570.49,232.66 565.99,246.26 564.57,255.00 C564.04,258.24 563.43,258.76 556.45,261.90 C547.38,265.97 539.99,272.34 536.85,278.77 C534.92,282.74 534.60,284.79 534.85,291.50 C535.21,301.00 535.20,301.88 534.43,313.50 C533.70,324.53 535.82,331.33 542.01,337.77 L 546.03 341.95 L 539.86 350.23 C532.10,360.63 527.28,370.91 525.34,381.20 C521.32,402.52 532.15,420.52 552.96,427.12 C562.70,430.21 576.29,429.90 585.49,426.36 C586.32,426.05 587.49,427.04 588.44,428.88 C589.30,430.55 591.92,433.04 594.26,434.41 C596.59,435.78 600.53,438.99 603.00,441.55 C608.31,447.03 616.09,452.51 624.75,456.88 C628.32,458.68 631.00,460.68 631.00,461.56 C631.00,464.14 626.15,468.29 624.21,467.38 C620.77,465.76 606.26,465.82 599.80,467.47 C586.51,470.87 583.08,474.14 582.27,484.22 C581.61,492.48 583.56,509.37 586.15,517.75 C587.71,522.79 589.25,525.34 592.97,529.06 C599.78,535.88 604.02,537.01 621.67,536.73 C635.07,536.51 635.98,536.37 638.38,534.11 ZM 649.45 656.55 C644.70,651.79 647.48,644.00 653.94,644.00 C659.72,644.00 662.22,652.57 657.69,656.83 C654.68,659.65 652.48,659.57 649.45,656.55 ZM 545.55 653.07 C544.91,652.04 546.94,647.00 548.00,647.00 C549.06,647.00 551.09,652.04 550.45,653.07 C550.14,653.58 549.04,654.00 548.00,654.00 C546.96,654.00 545.86,653.58 545.55,653.07 ZM 570.71 650.38 C570.32,649.99 570.00,648.39 570.00,646.83 C570.00,644.28 570.34,644.00 573.38,644.00 C577.45,644.00 579.88,646.37 578.34,648.83 C577.26,650.56 571.97,651.63 570.71,650.38 ZM 621.72 658.39 C621.32,657.99 621.00,654.59 621.00,650.83 L 621.00 644.00 L 623.89 644.00 C633.08,644.00 634.00,656.29 624.97,658.49 C623.58,658.83 622.12,658.78 621.72,658.39 ZM 776.72 658.39 C776.32,657.99 776.00,654.59 776.00,650.83 L 776.00 644.00 L 778.89 644.00 C788.08,644.00 789.00,656.29 779.97,658.49 C778.58,658.83 777.12,658.78 776.72,658.39 ZM 839.92 656.08 C836.47,652.62 836.25,650.22 839.07,646.63 C841.12,644.03 845.17,643.14 847.60,644.77 C851.52,647.38 851.57,654.78 847.70,657.50 C844.64,659.64 843.23,659.39 839.92,656.08 ZM 867.71 650.38 C867.32,649.99 867.00,648.39 867.00,646.83 C867.00,644.19 867.27,644.00 871.03,644.00 C875.41,644.00 877.13,645.97 875.31,648.89 C874.25,650.57 868.95,651.62 867.71,650.38 ZM 507.20 583.75 L 507.50 577.50 L 512.64 577.54 C518.80,577.58 521.00,579.14 521.00,583.47 C521.00,588.09 518.41,590.00 512.12,590.00 L 506.90 590.00 L 507.20 583.75 ZM 559.00 597.25 C558.99,595.36 563.37,582.00 564.00,582.00 C564.63,582.00 569.01,595.36 569.00,597.25 C569.00,597.66 566.75,598.00 564.00,598.00 C561.25,598.00 559.00,597.66 559.00,597.25 ZM 826.00 596.91 C826.00,594.73 830.21,582.00 830.93,582.00 C831.34,582.00 832.47,584.81 833.45,588.25 C834.43,591.69 835.46,595.29 835.73,596.25 C836.16,597.75 835.51,598.00 831.12,598.00 C828.08,598.00 826.00,597.56 826.00,596.91 ZM 875.00 584.00 L 875.00 578.00 L 880.96 578.00 C885.84,578.00 887.12,578.35 887.96,579.93 C890.97,585.56 887.46,590.00 880.00,590.00 L 875.00 590.00 L 875.00 584.00 ZM 609.33 530.02 C594.97,526.96 589.13,515.48 589.03,490.18 C589.00,480.92 589.97,477.00 592.29,477.00 C593.17,477.00 593.41,479.27 593.18,485.25 C592.81,494.99 595.09,510.48 597.67,515.75 C601.42,523.38 610.94,526.64 626.74,525.71 C635.42,525.19 635.93,525.27 635.02,526.96 C634.49,527.95 633.26,529.08 632.28,529.46 C629.35,530.60 613.80,530.98 609.33,530.02 ZM 771.44 516.81 C770.64,514.30 771.41,513.57 785.50,503.44 C790.45,499.88 798.33,493.80 803.00,489.92 C807.67,486.05 814.34,481.48 817.81,479.77 C825.18,476.15 832.22,475.43 832.79,478.25 C833.05,479.54 832.50,480.00 830.71,480.00 C826.41,480.00 814.79,486.68 804.50,495.06 C799.00,499.54 790.14,506.31 784.81,510.11 C779.47,513.91 774.83,517.46 774.50,518.01 C773.48,519.65 772.18,519.14 771.44,516.81 ZM 772.16 462.57 C771.48,460.68 768.91,456.55 766.46,453.39 C762.04,447.70 761.21,446.00 762.85,446.00 C764.40,446.00 773.56,456.43 774.91,459.73 C776.20,462.91 775.87,466.00 774.23,466.00 C773.78,466.00 772.84,464.46 772.16,462.57 ZM 842.50 436.25 C831.50,431.62 815.08,424.76 806.00,420.99 C772.14,406.96 767.61,405.01 766.75,404.15 C765.46,402.86 826.59,281.00 828.53,281.00 C830.37,281.00 930.00,313.96 930.00,314.56 C930.00,314.80 923.85,327.31 916.32,342.37 L 902.65 369.74 L 896.54 369.25 C891.01,368.81 890.14,369.01 887.25,371.44 C885.29,373.10 883.82,375.45 883.42,377.59 C883.06,379.50 881.90,381.52 880.83,382.09 C877.92,383.65 875.01,389.06 874.97,393.00 C874.95,394.92 874.29,397.62 873.50,399.00 C871.47,402.56 871.67,407.27 874.08,412.22 L 876.15 416.50 L 869.33 430.58 L 862.50 444.66 L 842.50 436.25 ZM 855.94 427.03 C859.60,425.16 864.00,419.70 864.00,417.03 C864.00,416.34 865.12,414.90 866.50,413.82 C867.88,412.74 869.00,411.45 869.00,410.95 C869.00,409.77 862.93,410.93 861.00,412.48 C856.92,415.76 846.89,421.05 845.91,420.44 C844.75,419.72 842.00,413.82 842.00,412.03 C842.00,410.17 844.85,410.95 846.48,413.25 L 848.07 415.50 L 853.03 412.75 C855.77,411.24 858.90,410.00 860.00,410.00 C865.31,410.00 859.36,401.90 853.03,400.51 C844.01,398.53 833.82,409.43 836.54,418.16 C838.41,424.20 844.13,428.86 849.79,428.96 C851.05,428.98 853.82,428.11 855.94,427.03 ZM 827.76 383.82 C829.99,378.75 829.94,376.06 827.67,379.04 C827.03,379.88 825.76,380.42 824.85,380.23 C823.13,379.88 820.00,383.45 820.00,385.75 C820.00,386.84 823.04,388.76 825.00,388.91 C825.28,388.93 826.52,386.64 827.76,383.82 ZM 876.36 381.10 L 878.73 376.19 L 876.37 374.93 C874.37,373.86 873.72,373.94 872.01,375.49 C869.64,377.64 869.38,380.82 871.50,381.64 C873.76,382.51 873.30,384.23 871.00,383.50 C868.85,382.82 868.17,384.50 870.25,385.34 C873.08,386.48 874.11,385.77 876.36,381.10 ZM 811.50 382.00 C811.84,381.45 811.19,381.00 810.06,381.00 C808.56,381.00 808.00,380.36 808.00,378.62 C808.00,375.52 810.32,373.65 813.07,374.52 C814.65,375.02 815.12,374.84 814.79,373.85 C814.11,371.79 810.07,371.63 807.92,373.57 C806.06,375.26 805.25,380.92 806.67,382.33 C807.68,383.35 810.80,383.13 811.50,382.00 ZM 869.98 374.25 C870.01,370.84 864.74,371.07 863.16,374.55 C862.52,375.95 862.00,377.52 862.00,378.05 C862.00,379.90 863.69,378.97 864.82,376.50 C866.11,373.67 868.64,372.96 867.49,375.75 C867.10,376.71 866.56,378.40 866.30,379.50 C865.90,381.22 866.12,381.15 867.89,379.00 C869.03,377.62 869.97,375.49 869.98,374.25 ZM 857.07 375.05 C855.65,374.16 856.76,371.00 858.50,371.00 C859.25,371.00 859.73,369.95 859.64,368.50 C859.51,366.19 857.00,364.76 857.00,367.00 C857.00,368.83 854.82,368.03 854.29,366.00 C854.00,364.90 853.43,364.00 853.02,364.00 C851.87,364.00 848.77,372.81 849.50,373.99 C850.38,375.42 852.03,374.25 851.41,372.63 C850.80,371.04 853.51,368.58 854.92,369.45 C855.58,369.86 855.53,370.94 854.77,372.61 C853.85,374.63 853.89,375.32 855.01,376.01 C855.78,376.48 856.81,376.62 857.31,376.31 C857.81,376.00 857.70,375.43 857.07,375.05 ZM 796.43 370.68 C795.62,368.56 793.64,368.53 791.91,370.61 C790.78,371.98 790.86,372.43 792.49,373.62 C794.09,374.79 794.63,374.80 795.74,373.69 C796.47,372.95 796.78,371.60 796.43,370.68 ZM 848.67 365.59 C848.34,364.71 847.15,364.00 846.03,364.00 C843.56,364.00 843.28,365.98 845.75,366.04 C846.74,366.06 846.05,366.71 844.16,367.53 C840.44,369.15 840.40,371.13 844.07,372.05 C846.03,372.54 846.77,372.13 847.89,369.92 C848.65,368.41 849.01,366.46 848.67,365.59 ZM 840.84 367.45 C842.52,363.76 842.27,362.00 840.06,362.00 C838.99,362.00 837.84,361.55 837.50,361.00 C836.46,359.32 832.27,359.86 831.73,361.75 C831.45,362.71 830.90,364.29 830.51,365.25 C829.40,367.95 831.49,367.32 833.00,364.50 C833.74,363.12 834.76,362.00 835.29,362.00 C836.20,362.00 836.03,363.17 834.53,367.50 C834.03,368.94 834.44,368.73 836.00,366.75 C838.32,363.81 840.61,363.01 839.61,365.50 C839.27,366.33 838.73,367.67 838.39,368.50 C837.34,371.10 839.62,370.12 840.84,367.45 ZM 828.52 362.25 C831.45,358.91 831.58,358.00 829.12,358.00 C828.08,358.00 827.01,358.79 826.73,359.75 C826.45,360.71 825.90,362.29 825.51,363.25 C824.45,365.82 825.76,365.38 828.52,362.25 ZM 813.51 357.96 C813.98,356.50 814.71,356.09 816.08,356.53 C818.37,357.25 818.70,355.48 816.44,354.61 C814.14,353.73 815.81,351.80 818.20,352.56 C819.65,353.02 820.11,352.82 819.79,351.85 C819.55,351.11 818.24,350.37 816.88,350.20 C814.91,349.97 814.07,350.62 812.71,353.49 C811.77,355.46 811.00,357.73 811.00,358.53 C811.00,360.71 812.77,360.31 813.51,357.96 ZM 805.82 352.17 C806.06,350.56 805.62,350.00 804.13,350.00 C801.50,350.00 800.51,351.71 802.06,353.58 C803.69,355.53 805.42,354.89 805.82,352.17 ZM 861.55 351.91 C863.50,348.13 862.84,346.00 859.69,346.00 C857.50,346.00 855.00,349.22 855.00,352.05 C855.00,353.90 856.69,352.97 857.82,350.50 C859.11,347.67 861.64,346.96 860.49,349.75 C858.17,355.41 858.93,356.97 861.55,351.91 ZM 877.53 351.96 C878.38,350.57 876.18,347.99 874.64,348.58 C872.74,349.31 873.17,353.00 875.16,353.00 C876.10,353.00 877.17,352.53 877.53,351.96 ZM 850.11 349.63 C848.72,347.96 849.68,345.00 851.61,345.00 C853.21,345.00 853.35,344.10 852.06,342.06 C851.30,340.86 850.89,340.85 849.55,341.96 C848.67,342.69 848.17,343.51 848.44,343.77 C848.71,344.04 848.46,345.14 847.89,346.21 C846.58,348.65 847.42,351.00 849.59,351.00 C850.88,351.00 850.99,350.70 850.11,349.63 ZM 845.68 345.75 C846.64,343.96 847.44,342.20 847.46,341.83 C847.48,341.47 847.84,340.83 848.25,340.42 C849.50,339.17 849.10,338.00 847.42,338.00 C846.55,338.00 846.04,338.56 846.29,339.25 C846.54,339.94 846.16,341.17 845.45,342.00 C844.03,343.65 842.44,349.00 843.37,349.00 C843.69,349.00 844.73,347.54 845.68,345.75 ZM 844.00 340.39 C844.00,340.18 843.09,340.00 841.98,340.00 C840.72,340.00 839.58,340.98 838.98,342.57 C837.31,346.94 837.88,347.34 841.00,344.00 C842.65,342.23 844.00,340.61 844.00,340.39 ZM 837.91 340.25 C839.92,337.62 840.65,336.00 839.82,336.00 C839.07,336.00 837.66,337.24 836.67,338.75 L 834.87 341.50 L 835.48 337.75 C836.21,333.28 834.99,332.93 831.98,336.75 L 829.82 339.50 L 830.52 335.75 C830.94,333.49 830.83,332.00 830.24,332.00 C829.23,332.00 828.00,337.59 828.05,342.00 L 828.07 344.50 L 830.64 341.50 L 833.20 338.50 L 832.65 341.63 C832.10,344.78 832.81,346.70 834.01,345.27 C834.36,344.85 836.11,342.59 837.91,340.25 ZM 902.00 344.12 C902.00,343.63 901.21,343.00 900.25,342.72 C899.29,342.43 889.28,338.98 878.00,335.04 C856.27,327.45 819.80,315.00 819.30,315.00 C819.13,315.00 819.00,315.40 819.00,315.89 C819.00,317.03 818.34,316.77 845.50,326.23 C900.67,345.43 902.00,345.85 902.00,344.12 ZM 857.00 342.00 C857.00,341.45 856.55,341.00 856.00,341.00 C855.45,341.00 855.00,341.45 855.00,342.00 C855.00,342.55 855.45,343.00 856.00,343.00 C856.55,343.00 857.00,342.55 857.00,342.00 ZM 910.83 333.64 C910.66,332.34 911.19,330.48 912.00,329.49 C913.37,327.85 913.30,327.77 911.09,328.47 C909.27,329.05 908.83,328.90 909.25,327.87 C909.56,327.11 910.12,325.71 910.51,324.75 C910.90,323.79 910.77,323.00 910.23,323.00 C909.22,323.00 905.00,331.92 905.00,334.06 C905.00,334.96 905.34,334.96 906.38,334.10 C907.45,333.21 907.90,333.30 908.35,334.47 C909.28,336.89 911.18,336.25 910.83,333.64 ZM 816.00 333.06 C816.00,330.37 814.11,329.46 812.29,331.29 C810.46,333.11 811.37,335.00 814.06,335.00 C815.31,335.00 816.00,334.31 816.00,333.06 ZM 904.68 327.70 C906.22,326.14 906.26,325.77 904.98,324.97 C902.79,323.58 902.64,323.68 900.85,327.95 C899.09,332.13 899.63,334.31 901.68,331.31 C902.35,330.31 903.71,328.69 904.68,327.70 ZM 899.37 327.21 C900.58,322.97 899.11,321.16 895.78,322.76 L 893.50 323.86 L 895.75 323.93 C898.37,324.01 898.85,325.99 896.25,326.02 C895.29,326.02 893.85,326.44 893.06,326.94 C891.86,327.70 891.84,328.10 892.98,329.47 C895.14,332.07 898.30,330.95 899.37,327.21 ZM 892.48 324.03 C893.87,321.30 895.00,318.60 895.00,318.03 C895.00,316.32 892.43,316.87 890.50,319.00 C887.94,321.83 886.95,321.48 887.65,318.00 C888.60,313.26 886.34,314.39 883.45,320.10 C880.93,325.07 880.91,328.21 883.42,324.78 C884.36,323.50 884.96,323.36 885.81,324.21 C886.67,325.07 887.46,324.89 888.98,323.52 C891.30,321.42 891.63,322.59 889.50,325.40 C888.25,327.05 888.27,329.00 889.54,329.00 C889.78,329.00 891.10,326.76 892.48,324.03 ZM 873.48 320.03 C875.98,315.10 875.99,315.06 873.96,313.98 C870.66,312.21 868.15,313.68 867.39,317.81 C867.02,319.84 866.27,321.79 865.73,322.14 C864.13,323.18 865.92,325.00 868.54,325.00 C870.44,325.00 871.51,323.93 873.48,320.03 ZM 879.50 324.00 C879.84,323.45 879.42,323.00 878.56,323.00 C877.70,323.00 877.00,322.55 877.00,322.00 C877.00,321.45 878.16,321.00 879.57,321.00 C881.66,321.00 882.08,320.58 881.82,318.75 C881.33,315.34 876.85,315.65 875.60,319.19 C874.30,322.89 877.64,327.01 879.50,324.00 ZM 866.00 316.00 C867.48,311.50 867.49,311.52 863.89,310.66 C861.57,310.10 861.12,310.47 859.73,314.02 C858.49,317.17 858.43,318.00 859.47,318.00 C860.19,318.00 861.07,316.88 861.41,315.50 C861.76,314.12 862.69,313.00 863.49,313.00 C864.64,313.00 864.75,313.54 863.98,315.57 C862.78,318.71 862.74,320.00 863.84,320.00 C864.30,320.00 865.27,318.20 866.00,316.00 ZM 851.67 308.57 C853.18,307.99 853.23,307.76 851.97,306.96 C851.16,306.45 850.14,306.02 849.70,306.02 C848.43,305.99 845.86,312.96 846.66,314.26 C847.12,315.00 847.85,314.29 848.64,312.34 C849.34,310.64 850.70,308.95 851.67,308.57 ZM 846.31 307.80 C848.39,303.53 847.33,300.00 843.96,300.00 C839.68,300.00 835.49,307.48 838.05,310.56 C840.29,313.26 844.30,311.92 846.31,307.80 ZM 830.59 306.35 C831.97,305.44 832.87,304.10 832.58,303.35 C832.30,302.61 832.67,302.00 833.41,302.00 C834.16,302.00 835.00,300.76 835.30,299.25 C835.92,296.00 835.41,295.19 833.78,296.82 C832.13,298.47 830.95,298.29 831.64,296.50 C831.98,295.62 831.66,295.01 830.86,295.02 C829.34,295.05 823.97,298.94 825.40,298.98 C825.90,298.99 825.64,299.79 824.83,300.75 C823.28,302.59 822.59,307.00 823.86,307.00 C824.27,307.00 825.17,306.44 825.87,305.75 C826.57,305.06 827.06,304.95 826.95,305.50 C826.40,308.42 827.16,308.60 830.59,306.35 ZM 684.71 396.93 C684.38,384.12 684.33,373.27 684.61,372.82 C684.89,372.37 688.20,372.00 691.97,372.00 L 698.82 372.00 L 705.55 380.25 C709.26,384.79 712.85,389.11 713.53,389.85 C714.54,390.95 716.08,389.36 721.98,381.10 C725.94,375.55 729.48,370.82 729.84,370.60 C730.20,370.38 733.54,369.88 737.25,369.49 L 744.00 368.77 L 744.00 374.88 C744.00,378.47 744.43,381.00 745.05,381.00 C746.20,381.00 745.27,413.92 744.08,415.24 C743.71,415.65 740.62,416.28 737.21,416.64 L 731.00 417.28 L 731.00 404.02 C731.00,392.39 730.82,390.91 729.51,391.99 C728.69,392.67 728.24,393.58 728.51,394.01 C728.77,394.44 728.25,395.07 727.35,395.42 C726.45,395.76 725.98,396.32 726.31,396.65 C726.64,396.98 725.92,398.08 724.71,399.09 C723.49,400.10 722.89,400.95 723.36,400.97 C723.83,400.99 723.16,401.89 721.86,402.97 C720.56,404.05 719.82,404.95 720.20,404.97 C721.10,405.01 716.15,410.00 715.20,410.00 C714.35,410.01 703.00,397.87 703.00,396.95 C703.00,396.60 702.15,395.54 701.11,394.60 C699.26,392.93 699.21,393.19 699.06,405.66 C698.97,412.68 698.68,418.65 698.41,418.92 C698.14,419.19 695.09,419.59 691.62,419.81 L 685.32 420.21 L 684.71 396.93 ZM 654.95 415.57 C649.80,412.35 638.77,400.15 638.71,397.62 C638.61,393.24 639.17,392.28 642.43,391.28 L 645.87 390.23 L 652.45 399.01 C659.04,407.80 664.20,419.00 661.66,419.00 C660.99,419.00 657.97,417.46 654.95,415.57 ZM 909.78 382.85 C909.57,382.21 908.52,381.62 907.45,381.52 C903.16,381.13 899.07,379.79 897.93,378.41 C895.90,375.97 897.75,375.58 902.09,377.54 C905.93,379.27 906.26,379.28 907.15,377.70 C907.67,376.76 908.45,376.00 908.89,376.00 C909.85,376.00 912.00,380.53 912.00,382.55 C912.00,384.27 910.33,384.50 909.78,382.85 ZM 594.56 379.14 C596.72,375.38 602.68,370.19 608.00,367.43 C613.12,364.77 623.95,365.03 630.74,367.97 C635.61,370.08 643.83,377.51 642.62,378.71 C642.33,379.00 640.38,377.90 638.30,376.26 C631.01,370.53 628.16,369.54 618.92,369.52 C610.63,369.50 610.15,369.63 604.92,373.23 C601.94,375.28 597.95,378.20 596.06,379.73 L 592.62 382.50 L 594.56 379.14 ZM 598.57 350.39 C593.86,344.54 590.00,339.40 590.00,338.96 C590.00,337.81 595.96,332.99 597.33,333.05 C598.46,333.09 616.65,355.45 617.22,357.50 C617.37,358.05 615.70,358.74 613.50,359.04 C611.30,359.33 608.97,359.90 608.32,360.30 C607.57,360.76 604.02,357.15 598.57,350.39 ZM 583.19 331.04 C579.35,325.85 580.75,321.00 586.08,321.00 C587.98,321.00 589.56,322.04 591.49,324.58 L 594.23 328.16 L 590.86 331.04 C586.62,334.67 585.87,334.67 583.19,331.04 ZM 786.25 282.70 C786.01,262.67 779.55,239.31 770.01,223.91 C767.14,219.28 764.50,215.27 764.14,215.00 C763.78,214.73 762.30,212.93 760.84,211.00 C756.09,204.70 749.57,198.33 746.00,196.48 L 742.50 194.67 L 745.50 193.38 C747.15,192.67 749.23,192.07 750.11,192.05 C752.27,191.98 767.07,207.51 771.58,214.56 C777.53,223.86 782.84,235.91 785.66,246.50 C788.01,255.31 788.34,258.47 788.41,273.00 C788.47,283.01 788.08,290.20 787.44,291.29 C786.64,292.64 786.35,290.52 786.25,282.70 ZM 666.20 260.80 C664.37,258.97 664.77,255.19 666.93,254.04 C669.53,252.64 671.89,253.71 672.62,256.62 C673.68,260.83 669.16,263.76 666.20,260.80 ZM 737.04 258.55 C734.38,255.35 738.29,250.43 741.75,252.61 C745.21,254.79 743.98,260.00 740.00,260.00 C739.03,260.00 737.70,259.35 737.04,258.55 ZM 621.00 220.15 C621.00,219.14 621.79,217.61 622.75,216.75 C624.17,215.48 624.72,215.43 625.68,216.47 C626.59,217.47 626.52,218.25 625.37,219.88 C623.54,222.49 621.00,222.65 621.00,220.15 ZM 682.00 169.53 C682.00,167.69 685.35,162.92 688.88,159.73 C696.17,153.14 704.82,150.04 716.00,150.00 C723.55,149.98 733.50,148.51 739.09,146.58 C741.24,145.84 743.00,145.38 743.00,145.57 C743.00,145.75 741.42,147.10 739.49,148.58 C735.36,151.73 726.22,153.92 716.98,153.96 C704.22,154.03 691.11,159.33 684.62,167.05 C683.18,168.75 682.00,169.87 682.00,169.53 ZM 743.50 169.35 C736.66,167.93 732.89,166.54 731.40,164.88 C729.12,162.37 730.31,162.40 741.61,165.08 C750.05,167.09 757.46,167.27 761.25,165.57 C762.23,165.13 763.00,165.20 763.00,165.73 C763.00,167.94 749.10,170.52 743.50,169.35 ZM 653.68 142.48 C649.38,137.89 646.00,133.89 646.18,133.59 C646.66,132.76 642.27,129.92 640.97,130.23 C640.35,130.38 639.15,129.49 638.31,128.26 C636.79,126.05 636.81,126.04 639.81,127.08 C641.47,127.66 643.09,128.78 643.39,129.57 C643.69,130.36 644.43,131.00 645.03,131.00 C646.65,131.00 654.82,138.91 657.94,143.50 C660.25,146.89 662.46,151.22 661.72,150.91 C661.60,150.86 657.98,147.06 653.68,142.48 ZM 649.00 135.62 C649.00,135.41 648.21,134.63 647.25,133.87 C645.66,132.63 645.63,132.66 646.87,134.25 C648.18,135.92 649.00,136.45 649.00,135.62 ZM 568.20 126.13 C567.36,125.60 568.24,124.95 570.83,124.17 C576.35,122.52 577.85,122.72 574.98,124.73 C572.06,126.77 569.95,127.21 568.20,126.13 ZM 674.72 118.10 C673.77,116.50 673.00,114.11 673.00,112.80 C673.00,111.48 672.46,109.86 671.80,109.20 C671.11,108.51 671.03,108.00 671.62,108.00 C672.17,108.00 673.56,109.69 674.69,111.75 C678.58,118.84 678.60,124.67 674.72,118.10 ZM 822.65 386.24 C821.71,384.72 822.97,382.00 824.61,382.00 C826.36,382.00 826.38,383.10 824.65,385.46 C823.80,386.62 823.06,386.91 822.65,386.24 ZM 872.48 379.97 C871.80,378.88 873.65,376.00 875.03,376.00 C875.99,376.00 875.07,379.84 873.95,380.53 C873.50,380.81 872.84,380.56 872.48,379.97 ZM 869.78 319.44 C868.90,318.56 870.15,314.88 871.20,315.23 C871.72,315.41 872.12,315.88 872.08,316.27 C872.03,316.67 872.00,317.67 872.00,318.50 C872.00,320.00 870.83,320.50 869.78,319.44 ZM 840.67 309.34 C839.49,308.15 839.95,305.19 841.58,303.56 C843.42,301.72 845.00,302.34 845.00,304.90 C845.00,306.94 841.68,310.34 840.67,309.34 Z" fill="rgb(249,248,245)"/>
</g>
</svg>